<svg width="71" height="47" viewBox="0 0 71 47" fill="none" xmlns="http://www.w3.org/2000/svg">
<mask id="path-1-outside-1_6406_3608" maskUnits="userSpaceOnUse" x="-1" y="-1" width="73" height="49" fill="black">
<rect fill="white" x="-1" y="-1" width="73" height="49"/>
<path d="M17.78 46.72C14.22 46.72 11.1 45.76 8.42 43.84C5.78 41.88 3.72 39.18 2.24 35.74C0.76 32.26 0.0200001 28.22 0.0200001 23.62C0.0200001 19.02 0.76 15 2.24 11.56C3.72 8.08 5.78 5.38 8.42 3.46C11.06 1.54 14.16 0.579998 17.72 0.579998C21.28 0.579998 24.38 1.54 27.02 3.46C29.66 5.38 31.72 8.08 33.2 11.56C34.72 15 35.48 19.02 35.48 23.62C35.48 28.22 34.74 32.26 33.26 35.74C31.78 39.22 29.7 41.92 27.02 43.84C24.38 45.76 21.3 46.72 17.78 46.72ZM17.78 41.26C20.18 41.26 22.26 40.54 24.02 39.1C25.78 37.62 27.14 35.56 28.1 32.92C29.1 30.28 29.6 27.18 29.6 23.62C29.6 20.06 29.1 16.96 28.1 14.32C27.14 11.68 25.76 9.64 23.96 8.2C22.2 6.76 20.12 6.04 17.72 6.04C15.32 6.04 13.24 6.76 11.48 8.2C9.72 9.64 8.34 11.68 7.34 14.32C6.38 16.96 5.9 20.06 5.9 23.62C5.9 27.14 6.38 30.22 7.34 32.86C8.34 35.5 9.72 37.56 11.48 39.04C13.28 40.52 15.38 41.26 17.78 41.26ZM41.458 46V41.92L53.818 28.54C56.258 25.94 58.198 23.8 59.638 22.12C61.118 20.44 62.198 18.94 62.878 17.62C63.558 16.3 63.898 14.9 63.898 13.42C63.898 10.98 63.178 9.1 61.738 7.78C60.298 6.46 58.398 5.8 56.038 5.8C53.638 5.8 51.598 6.5 49.918 7.9C48.238 9.26 47.078 11.2 46.438 13.72L41.098 12.34C41.618 9.94 42.578 7.86 43.978 6.1C45.378 4.34 47.118 2.98 49.198 2.02C51.278 1.06 53.558 0.579998 56.038 0.579998C58.758 0.579998 61.138 1.12 63.178 2.2C65.258 3.24 66.878 4.7 68.038 6.58C69.238 8.46 69.838 10.64 69.838 13.12C69.838 14.76 69.498 16.36 68.818 17.92C68.138 19.48 67.138 21.14 65.818 22.9C64.498 24.62 62.778 26.62 60.658 28.9L49.618 40.9H70.798V46H41.458Z"/>
</mask>
<path d="M17.78 46.72C14.22 46.72 11.1 45.76 8.42 43.84C5.78 41.88 3.72 39.18 2.24 35.74C0.76 32.26 0.0200001 28.22 0.0200001 23.62C0.0200001 19.02 0.76 15 2.24 11.56C3.72 8.08 5.78 5.38 8.42 3.46C11.06 1.54 14.16 0.579998 17.72 0.579998C21.28 0.579998 24.38 1.54 27.02 3.46C29.66 5.38 31.72 8.08 33.2 11.56C34.72 15 35.48 19.02 35.48 23.62C35.48 28.22 34.74 32.26 33.26 35.74C31.78 39.22 29.7 41.92 27.02 43.84C24.38 45.76 21.3 46.72 17.78 46.72ZM17.78 41.26C20.18 41.26 22.26 40.54 24.02 39.1C25.78 37.62 27.14 35.56 28.1 32.92C29.1 30.28 29.6 27.18 29.6 23.62C29.6 20.06 29.1 16.96 28.1 14.32C27.14 11.68 25.76 9.64 23.96 8.2C22.2 6.76 20.12 6.04 17.72 6.04C15.32 6.04 13.24 6.76 11.48 8.2C9.72 9.64 8.34 11.68 7.34 14.32C6.38 16.96 5.9 20.06 5.9 23.62C5.9 27.14 6.38 30.22 7.34 32.86C8.34 35.5 9.72 37.56 11.48 39.04C13.28 40.52 15.38 41.26 17.78 41.26ZM41.458 46V41.92L53.818 28.54C56.258 25.94 58.198 23.8 59.638 22.12C61.118 20.44 62.198 18.94 62.878 17.62C63.558 16.3 63.898 14.9 63.898 13.42C63.898 10.98 63.178 9.1 61.738 7.78C60.298 6.46 58.398 5.8 56.038 5.8C53.638 5.8 51.598 6.5 49.918 7.9C48.238 9.26 47.078 11.2 46.438 13.72L41.098 12.34C41.618 9.94 42.578 7.86 43.978 6.1C45.378 4.34 47.118 2.98 49.198 2.02C51.278 1.06 53.558 0.579998 56.038 0.579998C58.758 0.579998 61.138 1.12 63.178 2.2C65.258 3.24 66.878 4.7 68.038 6.58C69.238 8.46 69.838 10.64 69.838 13.12C69.838 14.76 69.498 16.36 68.818 17.92C68.138 19.48 67.138 21.14 65.818 22.9C64.498 24.62 62.778 26.62 60.658 28.9L49.618 40.9H70.798V46H41.458Z" fill="#F9F9FB"/>
<path d="M8.42 43.84L7.8239 44.6429L7.83072 44.648L7.83762 44.6529L8.42 43.84ZM2.24 35.74L1.31976 36.1314L1.32141 36.1352L2.24 35.74ZM2.24 11.56L3.1586 11.9552L3.16024 11.9514L2.24 11.56ZM8.42 3.46L7.83183 2.65126L8.42 3.46ZM27.02 3.46L27.6082 2.65126L27.02 3.46ZM33.2 11.56L32.2797 11.9514L32.2853 11.9642L33.2 11.56ZM33.26 35.74L34.1802 36.1314L33.26 35.74ZM27.02 43.84L26.4376 43.0271L26.4318 43.0313L27.02 43.84ZM24.02 39.1L24.6533 39.874L24.6636 39.8654L24.02 39.1ZM28.1 32.92L27.1648 32.5657L27.1602 32.5783L28.1 32.92ZM28.1 14.32L27.1601 14.6618L27.1648 14.6742L28.1 14.32ZM23.96 8.2L23.3267 8.974L23.3353 8.98087L23.96 8.2ZM11.48 8.2L10.8468 7.42604H10.8468L11.48 8.2ZM7.34 14.32L6.40476 13.9657L6.40021 13.9783L7.34 14.32ZM7.34 32.86L6.40012 33.2018L6.40484 33.2142L7.34 32.86ZM11.48 39.04L10.8364 39.8054L10.8449 39.8124L11.48 39.04ZM17.78 45.72C14.4113 45.72 11.4988 44.8156 9.00239 43.0271L7.83762 44.6529C10.7012 46.7044 14.0287 47.72 17.78 47.72V45.72ZM9.0161 43.0371C6.53641 41.1961 4.57876 38.6457 3.15859 35.3448L1.32141 36.1352C2.86124 39.7143 5.02359 42.5639 7.8239 44.6429L9.0161 43.0371ZM3.16024 35.3486C1.74295 32.0161 1.02 28.1139 1.02 23.62H-0.98C-0.98 28.3261 -0.222949 32.5039 1.31976 36.1314L3.16024 35.3486ZM1.02 23.62C1.02 19.1257 1.74307 15.2453 3.15859 11.9552L1.32141 11.1648C-0.223072 14.7547 -0.98 18.9143 -0.98 23.62H1.02ZM3.16024 11.9514C4.58077 8.61118 6.53649 6.06632 9.00817 4.26873L7.83183 2.65126C5.02351 4.69368 2.85923 7.54882 1.31976 11.1686L3.16024 11.9514ZM9.00817 4.26873C11.4616 2.4844 14.3512 1.58 17.72 1.58V-0.420002C13.9688 -0.420002 10.6584 0.595592 7.83183 2.65126L9.00817 4.26873ZM17.72 1.58C21.0888 1.58 23.9784 2.4844 26.4318 4.26873L27.6082 2.65126C24.7816 0.595592 21.4712 -0.420002 17.72 -0.420002V1.58ZM26.4318 4.26873C28.9035 6.06632 30.8592 8.61118 32.2798 11.9514L34.1202 11.1686C32.5808 7.54882 30.4165 4.69368 27.6082 2.65126L26.4318 4.26873ZM32.2853 11.9642C33.738 15.2518 34.48 19.1289 34.48 23.62H36.48C36.48 18.9111 35.702 14.7482 34.1147 11.1558L32.2853 11.9642ZM34.48 23.62C34.48 28.1139 33.7571 32.0161 32.3398 35.3486L34.1802 36.1314C35.723 32.5039 36.48 28.3261 36.48 23.62H34.48ZM32.3398 35.3486C30.9208 38.6851 28.9476 41.2289 26.4376 43.0271L27.6024 44.6529C30.4524 42.6111 32.6392 39.7549 34.1802 36.1314L32.3398 35.3486ZM26.4318 43.0313C23.9764 44.817 21.1062 45.72 17.78 45.72V47.72C21.4938 47.72 24.7836 46.703 27.6082 44.6487L26.4318 43.0313ZM17.78 42.26C20.397 42.26 22.7042 41.4686 24.6532 39.874L23.3868 38.326C21.8158 39.6114 19.963 40.26 17.78 40.26V42.26ZM24.6636 39.8654C26.5845 38.25 28.0331 36.0301 29.0398 33.2617L27.1602 32.5783C26.2469 35.0899 24.9755 36.99 23.3764 38.3346L24.6636 39.8654ZM29.0352 33.2742C30.0876 30.4958 30.6 27.2707 30.6 23.62H28.6C28.6 27.0893 28.1124 30.0642 27.1648 32.5658L29.0352 33.2742ZM30.6 23.62C30.6 19.9693 30.0876 16.7442 29.0352 13.9658L27.1648 14.6742C28.1124 17.1758 28.6 20.1507 28.6 23.62H30.6ZM29.0398 13.9783C28.0308 11.2035 26.5565 8.99655 24.5847 7.41913L23.3353 8.98087C24.9635 10.2834 26.2492 12.1565 27.1602 14.6617L29.0398 13.9783ZM24.5932 7.42604C22.6442 5.83135 20.337 5.04 17.72 5.04V7.04C19.903 7.04 21.7558 7.68864 23.3268 8.97396L24.5932 7.42604ZM17.72 5.04C15.103 5.04 12.7958 5.83135 10.8468 7.42604L12.1132 8.97396C13.6842 7.68864 15.537 7.04 17.72 7.04V5.04ZM10.8468 7.42604C8.92194 9.00089 7.4521 11.201 6.40484 13.9658L8.27516 14.6742C9.2279 12.159 10.5181 10.2791 12.1132 8.97395L10.8468 7.42604ZM6.40021 13.9783C5.39133 16.7527 4.9 19.9732 4.9 23.62H6.9C6.9 20.1468 7.36867 17.1673 8.27979 14.6617L6.40021 13.9783ZM4.9 23.62C4.9 27.2283 5.39174 30.4284 6.40021 33.2017L8.27979 32.5183C7.36826 30.0116 6.9 27.0517 6.9 23.62H4.9ZM6.40484 33.2142C7.45168 35.9779 8.91909 38.1931 10.8364 39.8054L12.1236 38.2746C10.5209 36.9269 9.22832 35.0221 8.27516 32.5058L6.40484 33.2142ZM10.8449 39.8124C12.8296 41.4443 15.1559 42.26 17.78 42.26V40.26C15.6041 40.26 13.7304 39.5957 12.1151 38.2676L10.8449 39.8124ZM41.458 46H40.458V47H41.458V46ZM41.458 41.92L40.7234 41.2414L40.458 41.5288V41.92H41.458ZM53.818 28.54L53.0888 27.8557L53.0834 27.8614L53.818 28.54ZM59.638 22.12L58.8875 21.4589L58.8787 21.4692L59.638 22.12ZM62.878 17.62L61.989 17.162L62.878 17.62ZM49.918 7.9L50.5472 8.67724L50.5527 8.67277L50.5582 8.66822L49.918 7.9ZM46.438 13.72L46.1878 14.6882L47.16 14.9394L47.4072 13.9662L46.438 13.72ZM41.098 12.34L40.1206 12.1282L39.9171 13.0677L40.8478 13.3082L41.098 12.34ZM43.978 6.1L44.7606 6.72252L43.978 6.1ZM63.178 2.2L62.7101 3.08379L62.7204 3.08923L62.7308 3.09443L63.178 2.2ZM68.038 6.58L67.1869 7.10511L67.1909 7.1116L67.195 7.11803L68.038 6.58ZM68.818 17.92L69.7347 18.3196L68.818 17.92ZM65.818 22.9L66.6113 23.5089L66.618 23.5L65.818 22.9ZM60.658 28.9L59.9256 28.219L59.922 28.2229L60.658 28.9ZM49.618 40.9L48.882 40.2229L47.3391 41.9H49.618V40.9ZM70.798 40.9H71.798V39.9H70.798V40.9ZM70.798 46V47H71.798V46H70.798ZM42.458 46V41.92H40.458V46H42.458ZM42.1925 42.5986L54.5525 29.2186L53.0834 27.8614L40.7234 41.2414L42.1925 42.5986ZM54.5472 29.2243C56.9921 26.6191 58.9434 24.4669 60.3972 22.7708L58.8787 21.4692C57.4525 23.1331 55.5239 25.2609 53.0888 27.8557L54.5472 29.2243ZM60.3883 22.781C61.8982 21.0671 63.0354 19.498 63.7669 18.078L61.989 17.162C61.3605 18.382 60.3378 19.8129 58.8876 21.459L60.3883 22.781ZM63.7669 18.078C64.5197 16.6168 64.898 15.0599 64.898 13.42H62.898C62.898 14.7401 62.5963 15.9832 61.989 17.162L63.7669 18.078ZM64.898 13.42C64.898 10.7745 64.1097 8.5975 62.4137 7.04284L61.0622 8.51715C62.2463 9.6025 62.898 11.1855 62.898 13.42H64.898ZM62.4137 7.04284C60.7524 5.52003 58.5933 4.8 56.038 4.8V6.8C58.2027 6.8 59.8435 7.39996 61.0622 8.51715L62.4137 7.04284ZM56.038 4.8C53.4284 4.8 51.1554 5.5671 49.2778 7.13177L50.5582 8.66822C52.0405 7.4329 53.8475 6.8 56.038 6.8V4.8ZM49.2888 7.12275C47.4092 8.64427 46.1508 10.7883 45.4687 13.4738L47.4072 13.9662C48.0052 11.6117 49.0667 9.87573 50.5472 8.67724L49.2888 7.12275ZM46.6882 12.7518L41.3482 11.3718L40.8478 13.3082L46.1878 14.6882L46.6882 12.7518ZM42.0753 12.5518C42.5658 10.2878 43.4647 8.35161 44.7606 6.72252L43.1954 5.47747C41.6912 7.36838 40.6701 9.59221 40.1206 12.1282L42.0753 12.5518ZM44.7606 6.72252C46.0615 5.08709 47.6761 3.82377 49.617 2.92796L48.7789 1.11204C46.5598 2.13622 44.6945 3.5929 43.1954 5.47748L44.7606 6.72252ZM49.617 2.92796C51.5551 2.03348 53.6905 1.58 56.038 1.58V-0.420002C53.4254 -0.420002 51.0009 0.0865183 48.7789 1.11204L49.617 2.92796ZM56.038 1.58C58.6239 1.58 60.8379 2.09264 62.7101 3.08379L63.6459 1.31621C61.438 0.147359 58.892 -0.420002 56.038 -0.420002V1.58ZM62.7308 3.09443C64.6536 4.05585 66.1298 5.39187 67.1869 7.10511L68.889 6.05489C67.6261 4.00812 65.8623 2.42415 63.6252 1.30557L62.7308 3.09443ZM67.195 7.11803C68.2812 8.81969 68.838 10.8086 68.838 13.12H70.838C70.838 10.4714 70.1947 8.1003 68.8809 6.04196L67.195 7.11803ZM68.838 13.12C68.838 14.6173 68.5284 16.0816 67.9013 17.5204L69.7347 18.3196C70.4675 16.6384 70.838 14.9027 70.838 13.12H68.838ZM67.9013 17.5204C67.2598 18.9921 66.3042 20.585 65.018 22.3L66.618 23.5C67.9717 21.695 69.0162 19.9679 69.7347 18.3196L67.9013 17.5204ZM65.0247 22.2912C63.7301 23.978 62.0326 25.9531 59.9256 28.2191L61.3903 29.5809C63.5234 27.2869 65.2658 25.262 66.6113 23.5088L65.0247 22.2912ZM59.922 28.2229L48.882 40.2229L50.3539 41.5771L61.3939 29.5771L59.922 28.2229ZM49.618 41.9H70.798V39.9H49.618V41.9ZM69.798 40.9V46H71.798V40.9H69.798ZM70.798 45H41.458V47H70.798V45Z" fill="#0D0D0D" mask="url(#path-1-outside-1_6406_3608)"/>
</svg>
