<svg width="72" height="47" viewBox="0 0 72 47" fill="none" xmlns="http://www.w3.org/2000/svg">
<mask id="path-1-outside-1_6406_3617" maskUnits="userSpaceOnUse" x="-1" y="-1" width="74" height="49" fill="black">
<rect fill="white" x="-1" y="-1" width="74" height="49"/>
<path d="M17.78 46.72C14.22 46.72 11.1 45.76 8.42 43.84C5.78 41.88 3.72 39.18 2.24 35.74C0.76 32.26 0.0200001 28.22 0.0200001 23.62C0.0200001 19.02 0.76 15 2.24 11.56C3.72 8.08 5.78 5.38 8.42 3.46C11.06 1.54 14.16 0.579998 17.72 0.579998C21.28 0.579998 24.38 1.54 27.02 3.46C29.66 5.38 31.72 8.08 33.2 11.56C34.72 15 35.48 19.02 35.48 23.62C35.48 28.22 34.74 32.26 33.26 35.74C31.78 39.22 29.7 41.92 27.02 43.84C24.38 45.76 21.3 46.72 17.78 46.72ZM17.78 41.26C20.18 41.26 22.26 40.54 24.02 39.1C25.78 37.62 27.14 35.56 28.1 32.92C29.1 30.28 29.6 27.18 29.6 23.62C29.6 20.06 29.1 16.96 28.1 14.32C27.14 11.68 25.76 9.64 23.96 8.2C22.2 6.76 20.12 6.04 17.72 6.04C15.32 6.04 13.24 6.76 11.48 8.2C9.72 9.64 8.34 11.68 7.34 14.32C6.38 16.96 5.9 20.06 5.9 23.62C5.9 27.14 6.38 30.22 7.34 32.86C8.34 35.5 9.72 37.56 11.48 39.04C13.28 40.52 15.38 41.26 17.78 41.26ZM55.858 46.72C53.498 46.72 51.298 46.3 49.258 45.46C47.218 44.62 45.458 43.44 43.978 41.92C42.498 40.36 41.398 38.52 40.678 36.4L45.658 34.36C46.498 36.6 47.818 38.34 49.618 39.58C51.418 40.82 53.498 41.44 55.858 41.44C57.698 41.44 59.338 41.08 60.778 40.36C62.218 39.64 63.338 38.6 64.138 37.24C64.978 35.88 65.398 34.24 65.398 32.32C65.398 30.36 64.978 28.72 64.138 27.4C63.338 26.04 62.218 25 60.778 24.28C59.338 23.56 57.678 23.2 55.798 23.2C55.198 23.2 54.538 23.24 53.818 23.32C53.138 23.4 52.558 23.52 52.078 23.68L50.818 20.98L62.758 6.4H42.958V1.3H69.418V6.22L58.018 20.26L57.658 18.7C60.338 18.78 62.698 19.4 64.738 20.56C66.778 21.72 68.378 23.3 69.538 25.3C70.698 27.26 71.278 29.56 71.278 32.2C71.278 34.92 70.618 37.38 69.298 39.58C67.978 41.78 66.158 43.52 63.838 44.8C61.518 46.08 58.858 46.72 55.858 46.72Z"/>
</mask>
<path d="M17.78 46.72C14.22 46.72 11.1 45.76 8.42 43.84C5.78 41.88 3.72 39.18 2.24 35.74C0.76 32.26 0.0200001 28.22 0.0200001 23.62C0.0200001 19.02 0.76 15 2.24 11.56C3.72 8.08 5.78 5.38 8.42 3.46C11.06 1.54 14.16 0.579998 17.72 0.579998C21.28 0.579998 24.38 1.54 27.02 3.46C29.66 5.38 31.72 8.08 33.2 11.56C34.72 15 35.48 19.02 35.48 23.62C35.48 28.22 34.74 32.26 33.26 35.74C31.78 39.22 29.7 41.92 27.02 43.84C24.38 45.76 21.3 46.72 17.78 46.72ZM17.78 41.26C20.18 41.26 22.26 40.54 24.02 39.1C25.78 37.62 27.14 35.56 28.1 32.92C29.1 30.28 29.6 27.18 29.6 23.62C29.6 20.06 29.1 16.96 28.1 14.32C27.14 11.68 25.76 9.64 23.96 8.2C22.2 6.76 20.12 6.04 17.72 6.04C15.32 6.04 13.24 6.76 11.48 8.2C9.72 9.64 8.34 11.68 7.34 14.32C6.38 16.96 5.9 20.06 5.9 23.62C5.9 27.14 6.38 30.22 7.34 32.86C8.34 35.5 9.72 37.56 11.48 39.04C13.28 40.52 15.38 41.26 17.78 41.26ZM55.858 46.72C53.498 46.72 51.298 46.3 49.258 45.46C47.218 44.62 45.458 43.44 43.978 41.92C42.498 40.36 41.398 38.52 40.678 36.4L45.658 34.36C46.498 36.6 47.818 38.34 49.618 39.58C51.418 40.82 53.498 41.44 55.858 41.44C57.698 41.44 59.338 41.08 60.778 40.36C62.218 39.64 63.338 38.6 64.138 37.24C64.978 35.88 65.398 34.24 65.398 32.32C65.398 30.36 64.978 28.72 64.138 27.4C63.338 26.04 62.218 25 60.778 24.28C59.338 23.56 57.678 23.2 55.798 23.2C55.198 23.2 54.538 23.24 53.818 23.32C53.138 23.4 52.558 23.52 52.078 23.68L50.818 20.98L62.758 6.4H42.958V1.3H69.418V6.22L58.018 20.26L57.658 18.7C60.338 18.78 62.698 19.4 64.738 20.56C66.778 21.72 68.378 23.3 69.538 25.3C70.698 27.26 71.278 29.56 71.278 32.2C71.278 34.92 70.618 37.38 69.298 39.58C67.978 41.78 66.158 43.52 63.838 44.8C61.518 46.08 58.858 46.72 55.858 46.72Z" fill="#F9F9FB"/>
<path d="M8.42 43.84L7.8239 44.6429L7.83072 44.648L7.83762 44.6529L8.42 43.84ZM2.24 35.74L1.31976 36.1314L1.32141 36.1352L2.24 35.74ZM2.24 11.56L3.1586 11.9552L3.16024 11.9514L2.24 11.56ZM8.42 3.46L7.83183 2.65126L8.42 3.46ZM27.02 3.46L27.6082 2.65126L27.02 3.46ZM33.2 11.56L32.2797 11.9514L32.2853 11.9642L33.2 11.56ZM33.26 35.74L34.1802 36.1314L33.26 35.74ZM27.02 43.84L26.4376 43.0271L26.4318 43.0313L27.02 43.84ZM24.02 39.1L24.6533 39.874L24.6636 39.8654L24.02 39.1ZM28.1 32.92L27.1648 32.5657L27.1602 32.5783L28.1 32.92ZM28.1 14.32L27.1601 14.6618L27.1648 14.6742L28.1 14.32ZM23.96 8.2L23.3267 8.974L23.3353 8.98087L23.96 8.2ZM11.48 8.2L10.8468 7.42604H10.8468L11.48 8.2ZM7.34 14.32L6.40476 13.9657L6.40021 13.9783L7.34 14.32ZM7.34 32.86L6.40012 33.2018L6.40484 33.2142L7.34 32.86ZM11.48 39.04L10.8364 39.8054L10.8449 39.8124L11.48 39.04ZM17.78 45.72C14.4113 45.72 11.4988 44.8156 9.00239 43.0271L7.83762 44.6529C10.7012 46.7044 14.0287 47.72 17.78 47.72V45.72ZM9.0161 43.0371C6.53641 41.1961 4.57876 38.6457 3.15859 35.3448L1.32141 36.1352C2.86124 39.7143 5.02359 42.5639 7.8239 44.6429L9.0161 43.0371ZM3.16024 35.3486C1.74295 32.0161 1.02 28.1139 1.02 23.62H-0.98C-0.98 28.3261 -0.222949 32.5039 1.31976 36.1314L3.16024 35.3486ZM1.02 23.62C1.02 19.1257 1.74307 15.2453 3.15859 11.9552L1.32141 11.1648C-0.223072 14.7547 -0.98 18.9143 -0.98 23.62H1.02ZM3.16024 11.9514C4.58077 8.61118 6.53649 6.06632 9.00817 4.26873L7.83183 2.65126C5.02351 4.69368 2.85923 7.54882 1.31976 11.1686L3.16024 11.9514ZM9.00817 4.26873C11.4616 2.4844 14.3512 1.58 17.72 1.58V-0.420002C13.9688 -0.420002 10.6584 0.595592 7.83183 2.65126L9.00817 4.26873ZM17.72 1.58C21.0888 1.58 23.9784 2.4844 26.4318 4.26873L27.6082 2.65126C24.7816 0.595592 21.4712 -0.420002 17.72 -0.420002V1.58ZM26.4318 4.26873C28.9035 6.06632 30.8592 8.61118 32.2798 11.9514L34.1202 11.1686C32.5808 7.54882 30.4165 4.69368 27.6082 2.65126L26.4318 4.26873ZM32.2853 11.9642C33.738 15.2518 34.48 19.1289 34.48 23.62H36.48C36.48 18.9111 35.702 14.7482 34.1147 11.1558L32.2853 11.9642ZM34.48 23.62C34.48 28.1139 33.7571 32.0161 32.3398 35.3486L34.1802 36.1314C35.723 32.5039 36.48 28.3261 36.48 23.62H34.48ZM32.3398 35.3486C30.9208 38.6851 28.9476 41.2289 26.4376 43.0271L27.6024 44.6529C30.4524 42.6111 32.6392 39.7549 34.1802 36.1314L32.3398 35.3486ZM26.4318 43.0313C23.9764 44.817 21.1062 45.72 17.78 45.72V47.72C21.4938 47.72 24.7836 46.703 27.6082 44.6487L26.4318 43.0313ZM17.78 42.26C20.397 42.26 22.7042 41.4686 24.6532 39.874L23.3868 38.326C21.8158 39.6114 19.963 40.26 17.78 40.26V42.26ZM24.6636 39.8654C26.5845 38.25 28.0331 36.0301 29.0398 33.2617L27.1602 32.5783C26.2469 35.0899 24.9755 36.99 23.3764 38.3346L24.6636 39.8654ZM29.0352 33.2742C30.0876 30.4958 30.6 27.2707 30.6 23.62H28.6C28.6 27.0893 28.1124 30.0642 27.1648 32.5658L29.0352 33.2742ZM30.6 23.62C30.6 19.9693 30.0876 16.7442 29.0352 13.9658L27.1648 14.6742C28.1124 17.1758 28.6 20.1507 28.6 23.62H30.6ZM29.0398 13.9783C28.0308 11.2035 26.5565 8.99655 24.5847 7.41913L23.3353 8.98087C24.9635 10.2834 26.2492 12.1565 27.1602 14.6617L29.0398 13.9783ZM24.5932 7.42604C22.6442 5.83135 20.337 5.04 17.72 5.04V7.04C19.903 7.04 21.7558 7.68864 23.3268 8.97396L24.5932 7.42604ZM17.72 5.04C15.103 5.04 12.7958 5.83135 10.8468 7.42604L12.1132 8.97396C13.6842 7.68864 15.537 7.04 17.72 7.04V5.04ZM10.8468 7.42604C8.92194 9.00089 7.4521 11.201 6.40484 13.9658L8.27516 14.6742C9.2279 12.159 10.5181 10.2791 12.1132 8.97395L10.8468 7.42604ZM6.40021 13.9783C5.39133 16.7527 4.9 19.9732 4.9 23.62H6.9C6.9 20.1468 7.36867 17.1673 8.27979 14.6617L6.40021 13.9783ZM4.9 23.62C4.9 27.2283 5.39174 30.4284 6.40021 33.2017L8.27979 32.5183C7.36826 30.0116 6.9 27.0517 6.9 23.62H4.9ZM6.40484 33.2142C7.45168 35.9779 8.91909 38.1931 10.8364 39.8054L12.1236 38.2746C10.5209 36.9269 9.22832 35.0221 8.27516 32.5058L6.40484 33.2142ZM10.8449 39.8124C12.8296 41.4443 15.1559 42.26 17.78 42.26V40.26C15.6041 40.26 13.7304 39.5957 12.1151 38.2676L10.8449 39.8124ZM49.258 45.46L49.6387 44.5353L49.258 45.46ZM43.978 41.92L43.2524 42.6083L43.2615 42.6176L43.978 41.92ZM40.678 36.4L40.2989 35.4746L39.4287 35.8311L39.7311 36.7216L40.678 36.4ZM45.658 34.36L46.5943 34.0089L46.2325 33.044L45.2789 33.4346L45.658 34.36ZM64.138 37.24L63.2872 36.7145L63.2815 36.7237L63.276 36.733L64.138 37.24ZM64.138 27.4L63.276 27.907L63.2849 27.9221L63.2943 27.9369L64.138 27.4ZM53.818 23.32L53.7075 22.3261L53.7011 22.3268L53.818 23.32ZM52.078 23.68L51.1718 24.1029L51.5487 24.9105L52.3942 24.6287L52.078 23.68ZM50.818 20.98L50.0443 20.3464L49.6458 20.833L49.9118 21.4029L50.818 20.98ZM62.758 6.4L63.5316 7.03358L64.8694 5.4H62.758V6.4ZM42.958 6.4H41.958V7.4H42.958V6.4ZM42.958 1.3V0.299996H41.958V1.3H42.958ZM69.418 1.3H70.418V0.299996H69.418V1.3ZM69.418 6.22L70.1943 6.85034L70.418 6.57486V6.22H69.418ZM58.018 20.26L57.0436 20.4849L57.5039 22.4796L58.7943 20.8903L58.018 20.26ZM57.658 18.7L57.6878 17.7004L56.3921 17.6618L56.6836 18.9249L57.658 18.7ZM64.738 20.56L65.2323 19.6907L64.738 20.56ZM69.538 25.3L68.6729 25.8017L68.6774 25.8093L69.538 25.3ZM69.298 39.58L68.4405 39.0655L69.298 39.58ZM63.838 44.8L63.3549 43.9244L63.838 44.8ZM55.858 45.72C53.6194 45.72 51.5497 45.3222 49.6387 44.5353L48.8772 46.3847C51.0462 47.2778 53.3766 47.72 55.858 47.72V45.72ZM49.6387 44.5353C47.7198 43.7452 46.0754 42.6407 44.6944 41.2224L43.2615 42.6176C44.8405 44.2393 46.7161 45.4948 48.8772 46.3847L49.6387 44.5353ZM44.7034 41.2317C43.327 39.7809 42.3004 38.0674 41.6249 36.0784L39.7311 36.7216C40.4956 38.9726 41.669 40.9391 43.2525 42.6083L44.7034 41.2317ZM41.057 37.3254L46.037 35.2854L45.2789 33.4346L40.2989 35.4746L41.057 37.3254ZM44.7216 34.7111C45.6263 37.1236 47.0663 39.0365 49.0507 40.4035L50.1853 38.7565C48.5696 37.6435 47.3696 36.0763 46.5943 34.0089L44.7216 34.7111ZM49.0507 40.4035C51.031 41.7677 53.3123 42.44 55.858 42.44V40.44C53.6836 40.44 51.805 39.8723 50.1853 38.7565L49.0507 40.4035ZM55.858 42.44C57.8309 42.44 59.6277 42.0532 61.2252 41.2544L60.3308 39.4656C59.0483 40.1068 57.565 40.44 55.858 40.44V42.44ZM61.2252 41.2544C62.8342 40.4499 64.0999 39.2771 64.9999 37.747L63.276 36.733C62.5761 37.9229 61.6017 38.8301 60.3308 39.4656L61.2252 41.2544ZM64.9888 37.7655C65.9443 36.2184 66.398 34.388 66.398 32.32H64.398C64.398 34.092 64.0116 35.5416 63.2872 36.7145L64.9888 37.7655ZM66.398 32.32C66.398 30.2177 65.9467 28.3797 64.9816 26.8631L63.2943 27.9369C64.0092 29.0603 64.398 30.5023 64.398 32.32H66.398ZM64.9999 26.893C64.0999 25.3629 62.8342 24.1901 61.2252 23.3856L60.3308 25.1744C61.6017 25.8099 62.5761 26.7171 63.276 27.907L64.9999 26.893ZM61.2252 23.3856C59.6248 22.5854 57.8072 22.2 55.798 22.2V24.2C57.5487 24.2 59.0511 24.5346 60.3308 25.1744L61.2252 23.3856ZM55.798 22.2C55.1545 22.2 54.457 22.2428 53.7075 22.3261L53.9284 24.3139C54.619 24.2372 55.2415 24.2 55.798 24.2V22.2ZM53.7011 22.3268C52.9754 22.4122 52.3246 22.5437 51.7617 22.7313L52.3942 24.6287C52.7913 24.4963 53.3006 24.3878 53.9348 24.3131L53.7011 22.3268ZM52.9841 23.2571L51.7242 20.5571L49.9118 21.4029L51.1718 24.1029L52.9841 23.2571ZM51.5916 21.6136L63.5316 7.03358L61.9843 5.76641L50.0443 20.3464L51.5916 21.6136ZM62.758 5.4H42.958V7.4H62.758V5.4ZM43.958 6.4V1.3H41.958V6.4H43.958ZM42.958 2.3H69.418V0.299996H42.958V2.3ZM68.418 1.3V6.22H70.418V1.3H68.418ZM68.6417 5.58965L57.2417 19.6297L58.7943 20.8903L70.1943 6.85034L68.6417 5.58965ZM58.9924 20.0351L58.6324 18.4751L56.6836 18.9249L57.0436 20.4849L58.9924 20.0351ZM57.6281 19.6996C60.1685 19.7754 62.3646 20.3608 64.2437 21.4293L65.2323 19.6907C63.0313 18.4392 60.5075 17.7846 57.6878 17.7004L57.6281 19.6996ZM64.2437 21.4293C66.1321 22.5031 67.6032 23.9573 68.6729 25.8017L70.403 24.7983C69.1528 22.6427 67.4238 20.9369 65.2323 19.6907L64.2437 21.4293ZM68.6774 25.8093C69.7324 27.592 70.278 29.7103 70.278 32.2H72.278C72.278 29.4097 71.6635 26.928 70.3985 24.7907L68.6774 25.8093ZM70.278 32.2C70.278 34.7501 69.6616 37.0304 68.4405 39.0655L70.1555 40.0945C71.5744 37.7296 72.278 35.0899 72.278 32.2H70.278ZM68.4405 39.0655C67.2143 41.1091 65.5257 42.7267 63.3549 43.9244L64.321 45.6756C66.7902 44.3133 68.7416 42.4509 70.1555 40.0945L68.4405 39.0655ZM63.3549 43.9244C61.2015 45.1125 58.7117 45.72 55.858 45.72V47.72C59.0043 47.72 61.8345 47.0475 64.321 45.6756L63.3549 43.9244Z" fill="#0D0D0D" mask="url(#path-1-outside-1_6406_3617)"/>
</svg>
