<svg width="75" height="47" viewBox="0 0 75 47" fill="none" xmlns="http://www.w3.org/2000/svg">
<mask id="path-1-outside-1_6406_3626" maskUnits="userSpaceOnUse" x="-1" y="-1" width="77" height="49" fill="black">
<rect fill="white" x="-1" y="-1" width="77" height="49"/>
<path d="M17.78 46.72C14.22 46.72 11.1 45.76 8.42 43.84C5.78 41.88 3.72 39.18 2.24 35.74C0.76 32.26 0.0200001 28.22 0.0200001 23.62C0.0200001 19.02 0.76 15 2.24 11.56C3.72 8.08 5.78 5.38 8.42 3.46C11.06 1.54 14.16 0.579998 17.72 0.579998C21.28 0.579998 24.38 1.54 27.02 3.46C29.66 5.38 31.72 8.08 33.2 11.56C34.72 15 35.48 19.02 35.48 23.62C35.48 28.22 34.74 32.26 33.26 35.74C31.78 39.22 29.7 41.92 27.02 43.84C24.38 45.76 21.3 46.72 17.78 46.72ZM17.78 41.26C20.18 41.26 22.26 40.54 24.02 39.1C25.78 37.62 27.14 35.56 28.1 32.92C29.1 30.28 29.6 27.18 29.6 23.62C29.6 20.06 29.1 16.96 28.1 14.32C27.14 11.68 25.76 9.64 23.96 8.2C22.2 6.76 20.12 6.04 17.72 6.04C15.32 6.04 13.24 6.76 11.48 8.2C9.72 9.64 8.34 11.68 7.34 14.32C6.38 16.96 5.9 20.06 5.9 23.62C5.9 27.14 6.38 30.22 7.34 32.86C8.34 35.5 9.72 37.56 11.48 39.04C13.28 40.52 15.38 41.26 17.78 41.26ZM62.758 46V35.68H40.798V30.82L62.638 1.3H68.278V30.82H74.098V35.68H68.278V46H62.758ZM45.238 32.92L44.398 30.82H62.758V6.22L64.498 6.7L45.238 32.92Z"/>
</mask>
<path d="M17.78 46.72C14.22 46.72 11.1 45.76 8.42 43.84C5.78 41.88 3.72 39.18 2.24 35.74C0.76 32.26 0.0200001 28.22 0.0200001 23.62C0.0200001 19.02 0.76 15 2.24 11.56C3.72 8.08 5.78 5.38 8.42 3.46C11.06 1.54 14.16 0.579998 17.72 0.579998C21.28 0.579998 24.38 1.54 27.02 3.46C29.66 5.38 31.72 8.08 33.2 11.56C34.72 15 35.48 19.02 35.48 23.62C35.48 28.22 34.74 32.26 33.26 35.74C31.78 39.22 29.7 41.92 27.02 43.84C24.38 45.76 21.3 46.72 17.78 46.72ZM17.78 41.26C20.18 41.26 22.26 40.54 24.02 39.1C25.78 37.62 27.14 35.56 28.1 32.92C29.1 30.28 29.6 27.18 29.6 23.62C29.6 20.06 29.1 16.96 28.1 14.32C27.14 11.68 25.76 9.64 23.96 8.2C22.2 6.76 20.12 6.04 17.72 6.04C15.32 6.04 13.24 6.76 11.48 8.2C9.72 9.64 8.34 11.68 7.34 14.32C6.38 16.96 5.9 20.06 5.9 23.62C5.9 27.14 6.38 30.22 7.34 32.86C8.34 35.5 9.72 37.56 11.48 39.04C13.28 40.52 15.38 41.26 17.78 41.26ZM62.758 46V35.68H40.798V30.82L62.638 1.3H68.278V30.82H74.098V35.68H68.278V46H62.758ZM45.238 32.92L44.398 30.82H62.758V6.22L64.498 6.7L45.238 32.92Z" fill="#F9F9FB"/>
<path d="M8.42 43.84L7.8239 44.6429L7.83072 44.648L7.83762 44.6529L8.42 43.84ZM2.24 35.74L1.31976 36.1314L1.32141 36.1352L2.24 35.74ZM2.24 11.56L3.1586 11.9552L3.16024 11.9514L2.24 11.56ZM8.42 3.46L7.83183 2.65126L8.42 3.46ZM27.02 3.46L27.6082 2.65126L27.02 3.46ZM33.2 11.56L32.2797 11.9514L32.2853 11.9642L33.2 11.56ZM33.26 35.74L34.1802 36.1314L33.26 35.74ZM27.02 43.84L26.4376 43.0271L26.4318 43.0313L27.02 43.84ZM24.02 39.1L24.6533 39.874L24.6636 39.8654L24.02 39.1ZM28.1 32.92L27.1648 32.5657L27.1602 32.5783L28.1 32.92ZM28.1 14.32L27.1601 14.6618L27.1648 14.6742L28.1 14.32ZM23.96 8.2L23.3267 8.974L23.3353 8.98087L23.96 8.2ZM11.48 8.2L10.8468 7.42604H10.8468L11.48 8.2ZM7.34 14.32L6.40476 13.9657L6.40021 13.9783L7.34 14.32ZM7.34 32.86L6.40012 33.2018L6.40484 33.2142L7.34 32.86ZM11.48 39.04L10.8364 39.8054L10.8449 39.8124L11.48 39.04ZM17.78 45.72C14.4113 45.72 11.4988 44.8156 9.00239 43.0271L7.83762 44.6529C10.7012 46.7044 14.0287 47.72 17.78 47.72V45.72ZM9.0161 43.0371C6.53641 41.1961 4.57876 38.6457 3.15859 35.3448L1.32141 36.1352C2.86124 39.7143 5.02359 42.5639 7.8239 44.6429L9.0161 43.0371ZM3.16024 35.3486C1.74295 32.0161 1.02 28.1139 1.02 23.62H-0.98C-0.98 28.3261 -0.222949 32.5039 1.31976 36.1314L3.16024 35.3486ZM1.02 23.62C1.02 19.1257 1.74307 15.2453 3.15859 11.9552L1.32141 11.1648C-0.223072 14.7547 -0.98 18.9143 -0.98 23.62H1.02ZM3.16024 11.9514C4.58077 8.61118 6.53649 6.06632 9.00817 4.26873L7.83183 2.65126C5.02351 4.69368 2.85923 7.54882 1.31976 11.1686L3.16024 11.9514ZM9.00817 4.26873C11.4616 2.4844 14.3512 1.58 17.72 1.58V-0.420002C13.9688 -0.420002 10.6584 0.595592 7.83183 2.65126L9.00817 4.26873ZM17.72 1.58C21.0888 1.58 23.9784 2.4844 26.4318 4.26873L27.6082 2.65126C24.7816 0.595592 21.4712 -0.420002 17.72 -0.420002V1.58ZM26.4318 4.26873C28.9035 6.06632 30.8592 8.61118 32.2798 11.9514L34.1202 11.1686C32.5808 7.54882 30.4165 4.69368 27.6082 2.65126L26.4318 4.26873ZM32.2853 11.9642C33.738 15.2518 34.48 19.1289 34.48 23.62H36.48C36.48 18.9111 35.702 14.7482 34.1147 11.1558L32.2853 11.9642ZM34.48 23.62C34.48 28.1139 33.7571 32.0161 32.3398 35.3486L34.1802 36.1314C35.723 32.5039 36.48 28.3261 36.48 23.62H34.48ZM32.3398 35.3486C30.9208 38.6851 28.9476 41.2289 26.4376 43.0271L27.6024 44.6529C30.4524 42.6111 32.6392 39.7549 34.1802 36.1314L32.3398 35.3486ZM26.4318 43.0313C23.9764 44.817 21.1062 45.72 17.78 45.72V47.72C21.4938 47.72 24.7836 46.703 27.6082 44.6487L26.4318 43.0313ZM17.78 42.26C20.397 42.26 22.7042 41.4686 24.6532 39.874L23.3868 38.326C21.8158 39.6114 19.963 40.26 17.78 40.26V42.26ZM24.6636 39.8654C26.5845 38.25 28.0331 36.0301 29.0398 33.2617L27.1602 32.5783C26.2469 35.0899 24.9755 36.99 23.3764 38.3346L24.6636 39.8654ZM29.0352 33.2742C30.0876 30.4958 30.6 27.2707 30.6 23.62H28.6C28.6 27.0893 28.1124 30.0642 27.1648 32.5658L29.0352 33.2742ZM30.6 23.62C30.6 19.9693 30.0876 16.7442 29.0352 13.9658L27.1648 14.6742C28.1124 17.1758 28.6 20.1507 28.6 23.62H30.6ZM29.0398 13.9783C28.0308 11.2035 26.5565 8.99655 24.5847 7.41913L23.3353 8.98087C24.9635 10.2834 26.2492 12.1565 27.1602 14.6617L29.0398 13.9783ZM24.5932 7.42604C22.6442 5.83135 20.337 5.04 17.72 5.04V7.04C19.903 7.04 21.7558 7.68864 23.3268 8.97396L24.5932 7.42604ZM17.72 5.04C15.103 5.04 12.7958 5.83135 10.8468 7.42604L12.1132 8.97396C13.6842 7.68864 15.537 7.04 17.72 7.04V5.04ZM10.8468 7.42604C8.92194 9.00089 7.4521 11.201 6.40484 13.9658L8.27516 14.6742C9.2279 12.159 10.5181 10.2791 12.1132 8.97395L10.8468 7.42604ZM6.40021 13.9783C5.39133 16.7527 4.9 19.9732 4.9 23.62H6.9C6.9 20.1468 7.36867 17.1673 8.27979 14.6617L6.40021 13.9783ZM4.9 23.62C4.9 27.2283 5.39174 30.4284 6.40021 33.2017L8.27979 32.5183C7.36826 30.0116 6.9 27.0517 6.9 23.62H4.9ZM6.40484 33.2142C7.45168 35.9779 8.91909 38.1931 10.8364 39.8054L12.1236 38.2746C10.5209 36.9269 9.22832 35.0221 8.27516 32.5058L6.40484 33.2142ZM10.8449 39.8124C12.8296 41.4443 15.1559 42.26 17.78 42.26V40.26C15.6041 40.26 13.7304 39.5957 12.1151 38.2676L10.8449 39.8124ZM62.758 46H61.758V47H62.758V46ZM62.758 35.68H63.758V34.68H62.758V35.68ZM40.798 35.68H39.798V36.68H40.798V35.68ZM40.798 30.82L39.9941 30.2252L39.798 30.4903V30.82H40.798ZM62.638 1.3V0.299996H62.1339L61.8341 0.705237L62.638 1.3ZM68.278 1.3H69.278V0.299996H68.278V1.3ZM68.278 30.82H67.278V31.82H68.278V30.82ZM74.098 30.82H75.098V29.82H74.098V30.82ZM74.098 35.68V36.68H75.098V35.68H74.098ZM68.278 35.68V34.68H67.278V35.68H68.278ZM68.278 46V47H69.278V46H68.278ZM45.238 32.92L44.3095 33.2914L44.9781 34.9629L46.0439 33.512L45.238 32.92ZM44.398 30.82V29.82H42.9209L43.4695 31.1914L44.398 30.82ZM62.758 30.82V31.82H63.758V30.82H62.758ZM62.758 6.22L63.0239 5.256L61.758 4.90678V6.22H62.758ZM64.498 6.7L65.3039 7.292L66.1633 6.12205L64.7639 5.73601L64.498 6.7ZM63.758 46V35.68H61.758V46H63.758ZM62.758 34.68H40.798V36.68H62.758V34.68ZM41.798 35.68V30.82H39.798V35.68H41.798ZM41.6019 31.4148L63.4419 1.89475L61.8341 0.705237L39.9941 30.2252L41.6019 31.4148ZM62.638 2.3H68.278V0.299996H62.638V2.3ZM67.278 1.3V30.82H69.278V1.3H67.278ZM68.278 31.82H74.098V29.82H68.278V31.82ZM73.098 30.82V35.68H75.098V30.82H73.098ZM74.098 34.68H68.278V36.68H74.098V34.68ZM67.278 35.68V46H69.278V35.68H67.278ZM68.278 45H62.758V47H68.278V45ZM46.1664 32.5486L45.3264 30.4486L43.4695 31.1914L44.3095 33.2914L46.1664 32.5486ZM44.398 31.82H62.758V29.82H44.398V31.82ZM63.758 30.82V6.22H61.758V30.82H63.758ZM62.492 7.18399L64.232 7.66399L64.7639 5.73601L63.0239 5.256L62.492 7.18399ZM63.692 6.108L44.432 32.328L46.0439 33.512L65.3039 7.292L63.692 6.108Z" fill="#0D0D0D" mask="url(#path-1-outside-1_6406_3626)"/>
</svg>
