<svg width="72" height="47" viewBox="0 0 72 47" fill="none" xmlns="http://www.w3.org/2000/svg">
<mask id="path-1-outside-1_6406_3635" maskUnits="userSpaceOnUse" x="-1" y="-1" width="74" height="49" fill="black">
<rect fill="white" x="-1" y="-1" width="74" height="49"/>
<path d="M17.78 46.72C14.22 46.72 11.1 45.76 8.42 43.84C5.78 41.88 3.72 39.18 2.24 35.74C0.76 32.26 0.0200001 28.22 0.0200001 23.62C0.0200001 19.02 0.76 15 2.24 11.56C3.72 8.08 5.78 5.38 8.42 3.46C11.06 1.54 14.16 0.579998 17.72 0.579998C21.28 0.579998 24.38 1.54 27.02 3.46C29.66 5.38 31.72 8.08 33.2 11.56C34.72 15 35.48 19.02 35.48 23.62C35.48 28.22 34.74 32.26 33.26 35.74C31.78 39.22 29.7 41.92 27.02 43.84C24.38 45.76 21.3 46.72 17.78 46.72ZM17.78 41.26C20.18 41.26 22.26 40.54 24.02 39.1C25.78 37.62 27.14 35.56 28.1 32.92C29.1 30.28 29.6 27.18 29.6 23.62C29.6 20.06 29.1 16.96 28.1 14.32C27.14 11.68 25.76 9.64 23.96 8.2C22.2 6.76 20.12 6.04 17.72 6.04C15.32 6.04 13.24 6.76 11.48 8.2C9.72 9.64 8.34 11.68 7.34 14.32C6.38 16.96 5.9 20.06 5.9 23.62C5.9 27.14 6.38 30.22 7.34 32.86C8.34 35.5 9.72 37.56 11.48 39.04C13.28 40.52 15.38 41.26 17.78 41.26ZM56.218 46.72C53.898 46.72 51.718 46.32 49.678 45.52C47.638 44.68 45.858 43.5 44.338 41.98C42.858 40.42 41.778 38.6 41.098 36.52L45.898 34.48C46.738 36.68 48.098 38.4 49.978 39.64C51.898 40.84 53.978 41.44 56.218 41.44C58.058 41.44 59.678 41.04 61.078 40.24C62.518 39.4 63.638 38.26 64.438 36.82C65.238 35.34 65.638 33.7 65.638 31.9C65.638 30.02 65.218 28.36 64.378 26.92C63.578 25.48 62.478 24.36 61.078 23.56C59.678 22.72 58.078 22.3 56.278 22.3C54.438 22.3 52.758 22.72 51.238 23.56C49.718 24.4 48.618 25.46 47.938 26.74L43.198 25.72L46.618 1.3H69.778V6.4H48.838L51.118 4.12L48.478 23.08L46.438 21.88C47.758 20.2 49.298 19 51.058 18.28C52.858 17.52 54.798 17.14 56.878 17.14C59.798 17.14 62.358 17.8 64.558 19.12C66.758 20.44 68.478 22.2 69.718 24.4C70.958 26.6 71.578 29.1 71.578 31.9C71.578 34.7 70.898 37.22 69.538 39.46C68.218 41.7 66.398 43.48 64.078 44.8C61.798 46.08 59.178 46.72 56.218 46.72Z"/>
</mask>
<path d="M17.78 46.72C14.22 46.72 11.1 45.76 8.42 43.84C5.78 41.88 3.72 39.18 2.24 35.74C0.76 32.26 0.0200001 28.22 0.0200001 23.62C0.0200001 19.02 0.76 15 2.24 11.56C3.72 8.08 5.78 5.38 8.42 3.46C11.06 1.54 14.16 0.579998 17.72 0.579998C21.28 0.579998 24.38 1.54 27.02 3.46C29.66 5.38 31.72 8.08 33.2 11.56C34.72 15 35.48 19.02 35.48 23.62C35.48 28.22 34.74 32.26 33.26 35.74C31.78 39.22 29.7 41.92 27.02 43.84C24.38 45.76 21.3 46.72 17.78 46.72ZM17.78 41.26C20.18 41.26 22.26 40.54 24.02 39.1C25.78 37.62 27.14 35.56 28.1 32.92C29.1 30.28 29.6 27.18 29.6 23.62C29.6 20.06 29.1 16.96 28.1 14.32C27.14 11.68 25.76 9.64 23.96 8.2C22.2 6.76 20.12 6.04 17.72 6.04C15.32 6.04 13.24 6.76 11.48 8.2C9.72 9.64 8.34 11.68 7.34 14.32C6.38 16.96 5.9 20.06 5.9 23.62C5.9 27.14 6.38 30.22 7.34 32.86C8.34 35.5 9.72 37.56 11.48 39.04C13.28 40.52 15.38 41.26 17.78 41.26ZM56.218 46.72C53.898 46.72 51.718 46.32 49.678 45.52C47.638 44.68 45.858 43.5 44.338 41.98C42.858 40.42 41.778 38.6 41.098 36.52L45.898 34.48C46.738 36.68 48.098 38.4 49.978 39.64C51.898 40.84 53.978 41.44 56.218 41.44C58.058 41.44 59.678 41.04 61.078 40.24C62.518 39.4 63.638 38.26 64.438 36.82C65.238 35.34 65.638 33.7 65.638 31.9C65.638 30.02 65.218 28.36 64.378 26.92C63.578 25.48 62.478 24.36 61.078 23.56C59.678 22.72 58.078 22.3 56.278 22.3C54.438 22.3 52.758 22.72 51.238 23.56C49.718 24.4 48.618 25.46 47.938 26.74L43.198 25.72L46.618 1.3H69.778V6.4H48.838L51.118 4.12L48.478 23.08L46.438 21.88C47.758 20.2 49.298 19 51.058 18.28C52.858 17.52 54.798 17.14 56.878 17.14C59.798 17.14 62.358 17.8 64.558 19.12C66.758 20.44 68.478 22.2 69.718 24.4C70.958 26.6 71.578 29.1 71.578 31.9C71.578 34.7 70.898 37.22 69.538 39.46C68.218 41.7 66.398 43.48 64.078 44.8C61.798 46.08 59.178 46.72 56.218 46.72Z" fill="#F9F9FB"/>
<path d="M8.42 43.84L7.8239 44.6429L7.83072 44.648L7.83762 44.6529L8.42 43.84ZM2.24 35.74L1.31976 36.1314L1.32141 36.1352L2.24 35.74ZM2.24 11.56L3.1586 11.9552L3.16024 11.9514L2.24 11.56ZM8.42 3.46L7.83183 2.65126L8.42 3.46ZM27.02 3.46L27.6082 2.65126L27.02 3.46ZM33.2 11.56L32.2797 11.9514L32.2853 11.9642L33.2 11.56ZM33.26 35.74L34.1802 36.1314L33.26 35.74ZM27.02 43.84L26.4376 43.0271L26.4318 43.0313L27.02 43.84ZM24.02 39.1L24.6533 39.874L24.6636 39.8654L24.02 39.1ZM28.1 32.92L27.1648 32.5657L27.1602 32.5783L28.1 32.92ZM28.1 14.32L27.1601 14.6618L27.1648 14.6742L28.1 14.32ZM23.96 8.2L23.3267 8.974L23.3353 8.98087L23.96 8.2ZM11.48 8.2L10.8468 7.42604H10.8468L11.48 8.2ZM7.34 14.32L6.40476 13.9657L6.40021 13.9783L7.34 14.32ZM7.34 32.86L6.40012 33.2018L6.40484 33.2142L7.34 32.86ZM11.48 39.04L10.8364 39.8054L10.8449 39.8124L11.48 39.04ZM17.78 45.72C14.4113 45.72 11.4988 44.8156 9.00239 43.0271L7.83762 44.6529C10.7012 46.7044 14.0287 47.72 17.78 47.72V45.72ZM9.0161 43.0371C6.53641 41.1961 4.57876 38.6457 3.15859 35.3448L1.32141 36.1352C2.86124 39.7143 5.02359 42.5639 7.8239 44.6429L9.0161 43.0371ZM3.16024 35.3486C1.74295 32.0161 1.02 28.1139 1.02 23.62H-0.98C-0.98 28.3261 -0.222949 32.5039 1.31976 36.1314L3.16024 35.3486ZM1.02 23.62C1.02 19.1257 1.74307 15.2453 3.15859 11.9552L1.32141 11.1648C-0.223072 14.7547 -0.98 18.9143 -0.98 23.62H1.02ZM3.16024 11.9514C4.58077 8.61118 6.53649 6.06632 9.00817 4.26873L7.83183 2.65126C5.02351 4.69368 2.85923 7.54882 1.31976 11.1686L3.16024 11.9514ZM9.00817 4.26873C11.4616 2.4844 14.3512 1.58 17.72 1.58V-0.420002C13.9688 -0.420002 10.6584 0.595592 7.83183 2.65126L9.00817 4.26873ZM17.72 1.58C21.0888 1.58 23.9784 2.4844 26.4318 4.26873L27.6082 2.65126C24.7816 0.595592 21.4712 -0.420002 17.72 -0.420002V1.58ZM26.4318 4.26873C28.9035 6.06632 30.8592 8.61118 32.2798 11.9514L34.1202 11.1686C32.5808 7.54882 30.4165 4.69368 27.6082 2.65126L26.4318 4.26873ZM32.2853 11.9642C33.738 15.2518 34.48 19.1289 34.48 23.62H36.48C36.48 18.9111 35.702 14.7482 34.1147 11.1558L32.2853 11.9642ZM34.48 23.62C34.48 28.1139 33.7571 32.0161 32.3398 35.3486L34.1802 36.1314C35.723 32.5039 36.48 28.3261 36.48 23.62H34.48ZM32.3398 35.3486C30.9208 38.6851 28.9476 41.2289 26.4376 43.0271L27.6024 44.6529C30.4524 42.6111 32.6392 39.7549 34.1802 36.1314L32.3398 35.3486ZM26.4318 43.0313C23.9764 44.817 21.1062 45.72 17.78 45.72V47.72C21.4938 47.72 24.7836 46.703 27.6082 44.6487L26.4318 43.0313ZM17.78 42.26C20.397 42.26 22.7042 41.4686 24.6532 39.874L23.3868 38.326C21.8158 39.6114 19.963 40.26 17.78 40.26V42.26ZM24.6636 39.8654C26.5845 38.25 28.0331 36.0301 29.0398 33.2617L27.1602 32.5783C26.2469 35.0899 24.9755 36.99 23.3764 38.3346L24.6636 39.8654ZM29.0352 33.2742C30.0876 30.4958 30.6 27.2707 30.6 23.62H28.6C28.6 27.0893 28.1124 30.0642 27.1648 32.5658L29.0352 33.2742ZM30.6 23.62C30.6 19.9693 30.0876 16.7442 29.0352 13.9658L27.1648 14.6742C28.1124 17.1758 28.6 20.1507 28.6 23.62H30.6ZM29.0398 13.9783C28.0308 11.2035 26.5565 8.99655 24.5847 7.41913L23.3353 8.98087C24.9635 10.2834 26.2492 12.1565 27.1602 14.6617L29.0398 13.9783ZM24.5932 7.42604C22.6442 5.83135 20.337 5.04 17.72 5.04V7.04C19.903 7.04 21.7558 7.68864 23.3268 8.97396L24.5932 7.42604ZM17.72 5.04C15.103 5.04 12.7958 5.83135 10.8468 7.42604L12.1132 8.97396C13.6842 7.68864 15.537 7.04 17.72 7.04V5.04ZM10.8468 7.42604C8.92194 9.00089 7.4521 11.201 6.40484 13.9658L8.27516 14.6742C9.2279 12.159 10.5181 10.2791 12.1132 8.97395L10.8468 7.42604ZM6.40021 13.9783C5.39133 16.7527 4.9 19.9732 4.9 23.62H6.9C6.9 20.1468 7.36867 17.1673 8.27979 14.6617L6.40021 13.9783ZM4.9 23.62C4.9 27.2283 5.39174 30.4284 6.40021 33.2017L8.27979 32.5183C7.36826 30.0116 6.9 27.0517 6.9 23.62H4.9ZM6.40484 33.2142C7.45168 35.9779 8.91909 38.1931 10.8364 39.8054L12.1236 38.2746C10.5209 36.9269 9.22832 35.0221 8.27516 32.5058L6.40484 33.2142ZM10.8449 39.8124C12.8296 41.4443 15.1559 42.26 17.78 42.26V40.26C15.6041 40.26 13.7304 39.5957 12.1151 38.2676L10.8449 39.8124ZM49.678 45.52L49.2972 46.4447L49.305 46.4479L49.3129 46.451L49.678 45.52ZM44.338 41.98L43.6125 42.6683L43.6216 42.6778L43.6309 42.6871L44.338 41.98ZM41.098 36.52L40.7068 35.5997L39.8623 35.9586L40.1475 36.8307L41.098 36.52ZM45.898 34.48L46.8322 34.1233L46.462 33.1537L45.5068 33.5597L45.898 34.48ZM49.978 39.64L49.4274 40.4748L49.4376 40.4815L49.448 40.488L49.978 39.64ZM61.078 40.24L61.5741 41.1083L61.5818 41.1038L61.078 40.24ZM64.438 36.82L65.3122 37.3057L65.3177 37.2955L64.438 36.82ZM64.378 26.92L63.5038 27.4056L63.5089 27.4148L63.5142 27.4239L64.378 26.92ZM61.078 23.56L60.5635 24.4175L60.5726 24.423L60.5818 24.4282L61.078 23.56ZM51.238 23.56L50.7543 22.6848L51.238 23.56ZM47.938 26.74L47.7276 27.7176L48.4665 27.8766L48.8211 27.2092L47.938 26.74ZM43.198 25.72L42.2076 25.5813L42.0787 26.502L42.9876 26.6976L43.198 25.72ZM46.618 1.3V0.299996H45.7483L45.6276 1.1613L46.618 1.3ZM69.778 1.3H70.778V0.299996H69.778V1.3ZM69.778 6.4V7.4H70.778V6.4H69.778ZM48.838 6.4L48.1309 5.69289L46.4238 7.4H48.838V6.4ZM51.118 4.12L52.1084 4.25791L52.5197 1.30404L50.4109 3.41289L51.118 4.12ZM48.478 23.08L47.9709 23.9419L49.2619 24.7013L49.4684 23.2179L48.478 23.08ZM46.438 21.88L45.6516 21.2622L44.9448 22.1618L45.931 22.7419L46.438 21.88ZM51.058 18.28L51.4366 19.2056L51.4469 19.2012L51.058 18.28ZM64.558 19.12L64.0435 19.9775L64.558 19.12ZM69.718 24.4L70.5891 23.909L69.718 24.4ZM69.538 39.46L68.6831 38.941L68.6764 38.9523L69.538 39.46ZM64.078 44.8L64.5675 45.672L64.5725 45.6692L64.078 44.8ZM56.218 45.72C54.0155 45.72 51.96 45.3408 50.0431 44.589L49.3129 46.451C51.4759 47.2992 53.7805 47.72 56.218 47.72V45.72ZM50.0587 44.5953C48.1375 43.8042 46.4692 42.6971 45.0451 41.2729L43.6309 42.6871C45.2467 44.3029 47.1384 45.5558 49.2972 46.4447L50.0587 44.5953ZM45.0634 41.2917C43.6874 39.8413 42.6832 38.1509 42.0485 36.2093L40.1475 36.8307C40.8727 39.0491 42.0286 40.9987 43.6125 42.6683L45.0634 41.2917ZM41.4891 37.4403L46.2891 35.4003L45.5068 33.5597L40.7068 35.5997L41.4891 37.4403ZM44.9637 34.8367C45.8748 37.2228 47.3643 39.114 49.4274 40.4748L50.5286 38.8052C48.8316 37.686 47.6011 36.1372 46.8322 34.1233L44.9637 34.8367ZM49.448 40.488C51.5251 41.7862 53.7884 42.44 56.218 42.44V40.44C54.1675 40.44 52.2709 39.8938 50.508 38.792L49.448 40.488ZM56.218 42.44C58.2071 42.44 60.0027 42.0062 61.5741 41.1082L60.5818 39.3718C59.3532 40.0738 57.9089 40.44 56.218 40.44V42.44ZM61.5818 41.1038C63.175 40.1744 64.4238 38.9046 65.3121 37.3056L63.5638 36.3344C62.8521 37.6154 61.8609 38.6256 60.5741 39.3762L61.5818 41.1038ZM65.3177 37.2955C66.2021 35.6593 66.638 33.8541 66.638 31.9H64.638C64.638 33.5459 64.2738 35.0207 63.5583 36.3445L65.3177 37.2955ZM66.638 31.9C66.638 29.866 66.1819 28.0278 65.2417 26.4161L63.5142 27.4239C64.254 28.6922 64.638 30.174 64.638 31.9H66.638ZM65.2521 26.4344C64.3654 24.8383 63.1363 23.5844 61.5741 22.6918L60.5818 24.4282C61.8197 25.1356 62.7905 26.1217 63.5038 27.4056L65.2521 26.4344ZM61.5925 22.7025C60.0214 21.7599 58.2401 21.3 56.278 21.3V23.3C57.9159 23.3 59.3345 23.6801 60.5635 24.4175L61.5925 22.7025ZM56.278 21.3C54.2792 21.3 52.4312 21.758 50.7543 22.6848L51.7217 24.4352C53.0847 23.682 54.5967 23.3 56.278 23.3V21.3ZM50.7543 22.6848C49.0987 23.5997 47.8425 24.7882 47.0549 26.2708L48.8211 27.2092C49.3934 26.1318 50.3373 25.2003 51.7217 24.4352L50.7543 22.6848ZM48.1483 25.7624L43.4083 24.7424L42.9876 26.6976L47.7276 27.7176L48.1483 25.7624ZM44.1883 25.8587L47.6083 1.43869L45.6276 1.1613L42.2076 25.5813L44.1883 25.8587ZM46.618 2.3H69.778V0.299996H46.618V2.3ZM68.778 1.3V6.4H70.778V1.3H68.778ZM69.778 5.4H48.838V7.4H69.778V5.4ZM49.5451 7.10711L51.8251 4.82711L50.4109 3.41289L48.1309 5.69289L49.5451 7.10711ZM50.1275 3.98209L47.4875 22.9421L49.4684 23.2179L52.1084 4.25791L50.1275 3.98209ZM48.985 22.2181L46.945 21.0181L45.931 22.7419L47.9709 23.9419L48.985 22.2181ZM47.2243 22.4978C48.4508 20.9368 49.8559 19.8522 51.4366 19.2055L50.6793 17.3545C48.74 18.1478 47.0651 19.4632 45.6516 21.2622L47.2243 22.4978ZM51.4469 19.2012C53.116 18.4965 54.9228 18.14 56.878 18.14V16.14C54.6731 16.14 52.5999 16.5435 50.669 17.3587L51.4469 19.2012ZM56.878 18.14C59.6423 18.14 62.0194 18.7631 64.0435 19.9775L65.0725 18.2625C62.6965 16.8369 59.9537 16.14 56.878 16.14V18.14ZM64.0435 19.9775C66.0973 21.2098 67.6933 22.8445 68.8468 24.891L70.5891 23.909C69.2626 21.5555 67.4186 19.6702 65.0725 18.2625L64.0435 19.9775ZM68.8468 24.891C69.9934 26.9253 70.578 29.2529 70.578 31.9H72.578C72.578 28.9471 71.9225 26.2747 70.5891 23.909L68.8468 24.891ZM70.578 31.9C70.578 34.53 69.9417 36.8682 68.6832 38.941L70.3928 39.979C71.8543 37.5718 72.578 34.87 72.578 31.9H70.578ZM68.6764 38.9523C67.4475 41.0377 65.7559 42.6948 63.5834 43.9308L64.5725 45.6692C67.0401 44.2652 68.9884 42.3623 70.3995 39.9677L68.6764 38.9523ZM63.5884 43.928C61.4768 45.1135 59.0295 45.72 56.218 45.72V47.72C59.3264 47.72 62.1191 47.0465 64.5675 45.672L63.5884 43.928Z" fill="#0D0D0D" mask="url(#path-1-outside-1_6406_3635)"/>
</svg>
