<svg width="157" height="157" viewBox="0 0 157 157" fill="none" xmlns="http://www.w3.org/2000/svg">
<g clip-path="url(#clip0_6193_2459)">
<rect width="157" height="157" rx="78.5" fill="#F6F5F4"/>
<rect width="157" height="157" rx="78.5" fill="#F6F5F4"/>
<path d="M74.3154 143.906C74.4591 144.346 74.6486 144.74 74.8838 145.089C75.1146 145.442 75.3912 145.742 75.7135 145.99C76.0315 146.239 76.393 146.428 76.7981 146.559C77.2032 146.69 77.6475 146.755 78.1309 146.755C78.9237 146.755 79.6445 146.55 80.2935 146.141C80.9425 145.731 81.4587 145.128 81.842 144.331C82.2253 143.534 82.4169 142.556 82.4169 141.397C82.4169 140.239 82.2231 139.261 81.8355 138.464C81.4478 137.667 80.9229 137.063 80.2609 136.654C79.5988 136.245 78.854 136.04 78.0264 136.04C77.2598 136.04 76.5847 136.203 76.001 136.53C75.413 136.861 74.9556 137.327 74.629 137.928C74.2979 138.534 74.1324 139.246 74.1324 140.065L73.6359 139.96H77.6605V141.397H72.5644V139.96C72.5644 138.858 72.7996 137.9 73.27 137.085C73.736 136.271 74.3807 135.639 75.2039 135.191C76.0228 134.746 76.9636 134.524 78.0264 134.524C79.2112 134.524 80.2522 134.803 81.1494 135.36C82.0424 135.918 82.7393 136.711 83.2402 137.739C83.7367 138.767 83.985 139.986 83.985 141.397C83.985 142.456 83.8434 143.408 83.5603 144.253C83.2728 145.102 82.8678 145.825 82.3451 146.422C81.8224 147.018 81.2039 147.476 80.4895 147.794C79.7752 148.112 78.989 148.271 78.1309 148.271C77.4253 148.271 76.7676 148.164 76.1578 147.951C75.5437 147.741 74.997 147.443 74.5179 147.055C74.0344 146.672 73.6315 146.213 73.3092 145.677C72.9869 145.145 72.7647 144.555 72.6428 143.906H74.3154Z" fill="#191919"/>
<path d="M69.7928 134.165L66.8154 147.21L58.9424 145.413L59.2622 144.011L65.5555 145.448L66.5616 141.04L60.676 139.697L60.9958 138.295L66.8814 139.639L67.8933 135.205L61.4981 133.746L61.8179 132.344L69.7928 134.165Z" fill="#191919"/>
<path d="M53.5684 142.135L52.9447 143.43L43.903 139.075L44.5267 137.78L48.3176 139.606L53.4996 128.846L54.9594 129.549L49.7774 140.309L53.5684 142.135Z" fill="#191919"/>
<path d="M25.5005 118.286C25.0318 118.76 24.8282 119.329 24.8898 119.993C24.9513 120.657 25.2347 121.305 25.7398 121.939C26.1091 122.402 26.5072 122.747 26.9341 122.975C27.3582 123.2 27.7788 123.304 28.1958 123.289C28.6101 123.271 28.9841 123.129 29.3178 122.863C29.5971 122.64 29.7842 122.382 29.8792 122.089C29.9681 121.795 29.9947 121.49 29.9592 121.173C29.9202 120.859 29.851 120.552 29.7514 120.252C29.6485 119.955 29.5452 119.69 29.4414 119.455L28.8802 118.164C28.7344 117.835 28.5915 117.453 28.4514 117.019C28.3085 116.581 28.2238 116.122 28.1974 115.642C28.1648 115.161 28.2369 114.685 28.4138 114.216C28.5908 113.746 28.9244 113.315 29.4148 112.924C29.9801 112.474 30.609 112.214 31.3016 112.147C31.9915 112.076 32.6964 112.216 33.4162 112.566C34.1333 112.914 34.8123 113.489 35.4532 114.293C36.0507 115.042 36.4472 115.787 36.6426 116.528C36.8353 117.266 36.8404 117.964 36.6577 118.622C36.4724 119.277 36.1099 119.853 35.5704 120.35L34.5276 119.042C34.8955 118.693 35.1165 118.3 35.1906 117.862C35.2586 117.423 35.2131 116.975 35.0539 116.517C34.8886 116.058 34.6403 115.621 34.309 115.205C33.9234 114.722 33.4988 114.35 33.0353 114.09C32.5684 113.833 32.1039 113.705 31.6421 113.705C31.1768 113.709 30.7534 113.863 30.372 114.167C30.0247 114.444 29.8194 114.766 29.7563 115.134C29.6931 115.502 29.7197 115.899 29.836 116.324C29.9524 116.749 30.1061 117.187 30.2973 117.636L30.956 119.216C31.3728 120.221 31.5534 121.136 31.4977 121.96C31.442 122.784 31.0617 123.478 30.3568 124.04C29.771 124.507 29.134 124.756 28.4455 124.787C27.7509 124.817 27.0682 124.659 26.3973 124.314C25.7203 123.968 25.1157 123.462 24.5834 122.794C24.0457 122.12 23.6886 121.424 23.5122 120.707C23.3323 119.992 23.3279 119.316 23.499 118.678C23.6673 118.037 24.0086 117.498 24.5229 117.06L25.5005 118.286Z" fill="#191919"/>
<path d="M19.3307 112.707L18.0357 113.331L13.6814 104.289L14.9765 103.665L16.8021 107.456L27.5626 102.274L28.2656 103.734L17.5051 108.916L19.3307 112.707Z" fill="#191919"/>
<path d="M24.5206 94.5958L24.8986 96.252L10.7601 94.4394L10.3879 92.8088L22.3398 85.0412L22.7178 86.6974L12.6261 93.1021L12.6494 93.204L24.5206 94.5958ZM19.2852 95.1474L17.7616 88.4719L19.1629 88.1521L20.6865 94.8276L19.2852 95.1474Z" fill="#191919"/>
<path d="M22.293 83.8968H8.91229L8.91229 79.3756C8.91229 78.3302 9.09087 77.4721 9.44804 76.8013C9.80085 76.1306 10.2865 75.634 10.905 75.3117C11.5235 74.9894 12.227 74.8282 13.0153 74.8282C13.8037 74.8282 14.5028 74.9894 15.1126 75.3117C15.7224 75.634 16.2015 76.1284 16.55 76.7948C16.8941 77.4612 17.0661 78.3128 17.0661 79.3494V83.0082H15.6026L15.6026 79.4017C15.6026 78.6874 15.4981 78.1124 15.289 77.6768C15.0799 77.2369 14.7838 76.9189 14.4005 76.7229C14.0128 76.5226 13.5511 76.4224 13.0153 76.4224C12.4796 76.4224 12.0114 76.5226 11.6106 76.7229C11.2099 76.9233 10.9007 77.2434 10.6829 77.6834C10.4607 78.1233 10.3497 78.7048 10.3497 79.4278L10.3497 82.2764H22.293V83.8968ZM16.2821 77.5984L22.293 74.3055V76.1872L16.2821 79.4278V77.5984Z" fill="#191919"/>
<path d="M10.9134 68.3529L9.51204 68.0331L11.7452 58.2492L13.1465 58.569L12.2102 62.6711L23.8541 65.3288L23.4935 66.9085L11.8497 64.2508L10.9134 68.3529Z" fill="#191919"/>
<path d="M26.1674 57.6236L14.1119 51.818L17.6157 44.5422L18.9107 45.1659L16.1099 50.9818L20.1834 52.9434L22.8027 47.5043L24.0978 48.1279L21.4784 53.5671L25.5754 55.5401L28.4216 49.63L29.7166 50.2537L26.1674 57.6236Z" fill="#191919"/>
<path d="M34.176 43.9311L31.6015 47.1594L21.1401 38.8167L23.8287 35.4454C24.638 34.4305 25.5399 33.7292 26.5345 33.3413C27.5257 32.9506 28.5647 32.8739 29.6514 33.111C30.7347 33.3453 31.8178 33.8943 32.9007 34.7579C33.9905 35.627 34.7739 36.5692 35.2509 37.5848C35.7246 38.5976 35.8765 39.6436 35.7068 40.7227C35.5336 41.7992 35.0234 42.8686 34.176 43.9311ZM31.488 44.9964L32.9871 43.1166C33.6769 42.2517 34.0817 41.4018 34.2015 40.5669C34.3213 39.7321 34.1843 38.9292 33.7906 38.1585C33.3969 37.3877 32.7744 36.6628 31.9231 35.9839C31.0785 35.3104 30.2415 34.8685 29.4119 34.6582C28.579 34.4452 27.7804 34.4825 27.0163 34.7701C26.2487 35.0549 25.5391 35.606 24.8873 36.4233L23.2741 38.4461L31.488 44.9964Z" fill="#191919"/>
<path d="M53.5812 25.3883C53.1063 25.6169 52.617 25.71 52.113 25.6674C51.6072 25.621 51.1421 25.4582 50.7176 25.1792C50.2971 24.8982 49.9725 24.5203 49.7438 24.0455C49.5133 23.5667 49.4202 23.0773 49.4646 22.5773C49.5111 22.0715 49.6748 21.6083 49.9557 21.1878C50.2348 20.7634 50.6117 20.4368 51.0866 20.2081C51.5653 19.9776 52.0557 19.8865 52.5576 19.9348C53.0615 19.9774 53.5237 20.1391 53.9443 20.4201C54.3668 20.6952 54.6934 21.0721 54.9239 21.5509C55.1526 22.0257 55.2437 22.5161 55.1972 23.0219C55.1547 23.5258 54.9939 23.99 54.7149 24.4145C54.4378 24.8331 54.06 25.1577 53.5812 25.3883Z" fill="#191919"/>
<path d="M82.6846 13.0938C82.5409 12.6538 82.3514 12.2596 82.1162 11.9112C81.8854 11.5584 81.6088 11.2578 81.2865 11.0096C80.9685 10.7613 80.607 10.5718 80.2019 10.4411C79.7968 10.3105 79.3525 10.2451 78.8691 10.2451C78.0763 10.2451 77.3555 10.4498 76.7065 10.8593C76.0575 11.2687 75.5413 11.872 75.158 12.6691C74.7747 13.4662 74.5831 14.444 74.5831 15.6026C74.5831 16.7612 74.7769 17.7391 75.1645 18.5362C75.5522 19.3333 76.0771 19.9365 76.7391 20.346C77.4012 20.7554 78.146 20.9601 78.9736 20.9601C79.7402 20.9601 80.4153 20.7968 80.999 20.4701C81.587 20.1391 82.0444 19.673 82.371 19.0719C82.7021 18.4665 82.8676 17.7543 82.8676 16.9355L83.3641 17.04L79.3395 17.04V15.6026L84.4356 15.6026V17.04C84.4356 18.142 84.2004 19.1002 83.73 19.9148C83.264 20.7293 82.6193 21.3609 81.7961 21.8095C80.9772 22.2538 80.0364 22.4759 78.9736 22.4759C77.7888 22.4759 76.7478 22.1971 75.8506 21.6396C74.9576 21.0821 74.2607 20.2894 73.7598 19.2614C73.2633 18.2335 73.015 17.0139 73.015 15.6026C73.015 14.5442 73.1566 13.5925 73.4397 12.7475C73.7272 11.8981 74.1322 11.1751 74.6549 10.5783C75.1776 9.98161 75.7961 9.52426 76.5105 9.2063C77.2248 8.88833 78.011 8.72935 78.8691 8.72935C79.5747 8.72935 80.2324 8.83606 80.8422 9.04949C81.4563 9.25856 82.003 9.55693 82.4821 9.94458C82.9656 10.3279 83.3685 10.7874 83.6908 11.3232C84.0131 11.8546 84.2353 12.4448 84.3572 13.0938H82.6846Z" fill="#191919"/>
<path d="M87.2072 22.8355L90.1846 9.79029L98.0576 11.5872L97.7378 12.9886L91.4445 11.5522L90.4384 15.96L96.324 17.3034L96.0042 18.7047L90.1186 17.3614L89.1067 21.7947L95.5019 23.2544L95.1821 24.6557L87.2072 22.8355Z" fill="#191919"/>
<path d="M103.432 14.8653L104.055 13.5703L113.097 17.9245L112.473 19.2196L108.682 17.394L103.5 28.1545L102.041 27.4515L107.223 16.6909L103.432 14.8653Z" fill="#191919"/>
<path d="M131.499 38.7145C131.968 38.2404 132.172 37.6713 132.11 37.0073C132.049 36.3433 131.765 35.6946 131.26 35.0612C130.891 34.598 130.493 34.2526 130.066 34.0247C129.642 33.8002 129.221 33.6955 128.804 33.7105C128.39 33.7289 128.016 33.8712 127.682 34.1373C127.403 34.36 127.216 34.6179 127.121 34.9109C127.032 35.2047 127.005 35.51 127.041 35.8271C127.08 36.1414 127.149 36.4483 127.249 36.7478C127.352 37.0445 127.455 37.3103 127.559 37.5452L128.12 38.8358C128.266 39.1652 128.409 39.5471 128.549 39.9813C128.692 40.4189 128.776 40.8779 128.803 41.3582C128.835 41.8392 128.763 42.3145 128.586 42.7843C128.409 43.2541 128.076 43.6845 127.585 44.0756C127.02 44.5264 126.391 44.7856 125.698 44.8532C125.009 44.9243 124.304 44.7844 123.584 44.4337C122.867 44.0863 122.188 43.5108 121.547 42.7071C120.949 41.9579 120.553 41.2128 120.357 40.4717C120.165 39.734 120.16 39.0361 120.342 38.3779C120.528 37.7231 120.89 37.1471 121.43 36.65L122.472 37.9577C122.105 38.3068 121.884 38.7003 121.809 39.1383C121.741 39.5769 121.787 40.0253 121.946 40.4833C122.111 40.9421 122.36 41.3792 122.691 41.7946C123.077 42.2782 123.501 42.6499 123.965 42.9098C124.432 43.167 124.896 43.2953 125.358 43.2946C125.823 43.2913 126.247 43.1375 126.628 42.8333C126.975 42.5563 127.181 42.2339 127.244 41.8659C127.307 41.498 127.28 41.1014 127.164 40.6761C127.048 40.2507 126.894 39.8134 126.703 39.3642L126.044 37.7836C125.627 36.779 125.447 35.8644 125.502 35.0401C125.558 34.2157 125.938 33.5224 126.643 32.9603C127.229 32.4932 127.866 32.2442 128.555 32.2132C129.249 32.183 129.932 32.3405 130.603 32.6858C131.28 33.0317 131.884 33.5384 132.417 34.2059C132.954 34.8801 133.311 35.5759 133.488 36.2931C133.668 37.0077 133.672 37.6839 133.501 38.3217C133.333 38.9629 132.991 39.5025 132.477 39.9404L131.499 38.7145Z" fill="#191919"/>
<path d="M137.669 44.2929L138.964 43.6693L143.319 52.7109L142.024 53.3346L140.198 49.5437L129.437 54.7257L128.734 53.2658L139.495 48.0838L137.669 44.2929Z" fill="#191919"/>
<path d="M132.479 62.4042L132.101 60.748L146.24 62.5606L146.612 64.1912L134.66 71.9588L134.282 70.3026L144.374 63.8979L144.351 63.796L132.479 62.4042ZM137.715 61.8526L139.238 68.5281L137.837 68.8479L136.313 62.1724L137.715 61.8526Z" fill="#191919"/>
<path d="M134.707 73.1032H148.088V77.6244C148.088 78.6698 147.909 79.5279 147.552 80.1987C147.199 80.8694 146.713 81.366 146.095 81.6883C145.476 82.0106 144.773 82.1718 143.985 82.1718C143.196 82.1718 142.497 82.0106 141.887 81.6883C141.278 81.366 140.798 80.8716 140.45 80.2052C140.106 79.5388 139.934 78.6872 139.934 77.6506V73.9918H141.397V77.5983C141.397 78.3126 141.502 78.8876 141.711 79.3232C141.92 79.7631 142.216 80.0811 142.6 80.2771C142.987 80.4774 143.449 80.5776 143.985 80.5776C144.52 80.5776 144.989 80.4774 145.389 80.2771C145.79 80.0767 146.099 79.7566 146.317 79.3166C146.539 78.8767 146.65 78.2952 146.65 77.5722V74.7236H134.707V73.1032ZM140.718 79.4016L134.707 82.6945V80.8128L140.718 77.5722V79.4016Z" fill="#191919"/>
<path d="M146.087 88.6471L147.488 88.9669L145.255 98.7508L143.854 98.431L144.79 94.3289L133.146 91.6712L133.506 90.0915L145.15 92.7492L146.087 88.6471Z" fill="#191919"/>
<path d="M130.833 99.3764L142.888 105.182L139.384 112.458L138.089 111.834L140.89 106.018L136.817 104.057L134.197 109.496L132.902 108.872L135.522 103.433L131.425 101.46L128.578 107.37L127.283 106.746L130.833 99.3764Z" fill="#191919"/>
<path d="M122.824 113.069L125.398 109.841L135.86 118.183L133.171 121.555C132.362 122.569 131.46 123.271 130.465 123.659C129.474 124.049 128.435 124.126 127.349 123.889C126.265 123.655 125.182 123.106 124.099 122.242C123.01 121.373 122.226 120.431 121.749 119.415C121.275 118.402 121.123 117.356 121.293 116.277C121.466 115.201 121.977 114.131 122.824 113.069ZM125.512 112.004L124.013 113.883C123.323 114.748 122.918 115.598 122.799 116.433C122.679 117.268 122.816 118.071 123.209 118.842C123.603 119.612 124.226 120.337 125.077 121.016C125.921 121.69 126.759 122.132 127.588 122.342C128.421 122.555 129.22 122.518 129.984 122.23C130.751 121.945 131.461 121.394 132.113 120.577L133.726 118.554L125.512 112.004Z" fill="#191919"/>
<path d="M103.419 131.612C103.894 131.383 104.383 131.29 104.887 131.333C105.393 131.379 105.858 131.542 106.282 131.821C106.703 132.102 107.028 132.48 107.256 132.954C107.487 133.433 107.58 133.923 107.535 134.423C107.489 134.928 107.325 135.392 107.044 135.812C106.765 136.237 106.388 136.563 105.913 136.792C105.435 137.022 104.944 137.114 104.442 137.065C103.938 137.023 103.476 136.861 103.056 136.58C102.633 136.305 102.307 135.928 102.076 135.449C101.847 134.974 101.756 134.484 101.803 133.978C101.845 133.474 102.006 133.01 102.285 132.586C102.562 132.167 102.94 131.842 103.419 131.612Z" fill="#191919"/>
<rect x="28.8242" y="28.8242" width="99.3516" height="99.3516" rx="49.6758" fill="#191919"/>
<path d="M78.5 58.875V97.5117M78.5 97.5117L88.3125 87.6992M78.5 97.5117L68.6875 87.6992" stroke="#F6F5F4" stroke-width="1.83984"/>
</g>
<defs>
<clipPath id="clip0_6193_2459">
<rect width="157" height="157" fill="white"/>
</clipPath>
</defs>
</svg>
