<svg width="35" height="35" viewBox="0 0 35 35" fill="none" xmlns="http://www.w3.org/2000/svg">
<path d="M30.269 16.5388C28.9307 15.8046 24.2441 14.2858 20.3447 13.1495L23.1752 10.226L23.4822 10.5442L24.1585 9.84614L23.8515 9.52739L25.8086 7.50492L25.4341 7.11711L27.3912 5.0957L25.7209 3.36914L23.7633 5.39108L23.3866 5.00327L21.4279 7.0252L20.6948 6.2687L16.1733 10.9448L16.7433 11.536L20.5795 7.56973L20.7474 7.72911L16.6063 12.0062C12.8689 10.2924 11.4526 12.1842 9.51621 14.7979C8.45637 16.228 7.13674 18.0088 5.08346 19.7428C4.41196 20.3086 3.72399 21.2829 3.80846 22.321C3.8499 22.8363 4.1134 23.5662 5.06009 24.2069L3.04452 27.9453L1.93262 29.096L2.48299 29.665L3.60021 28.5116L6.18899 27.0257C6.6719 27.6701 7.41671 28.1275 8.17693 28.2024C10.005 28.3852 11.5541 29.0657 13.0527 29.7239C14.5386 30.3774 15.9417 30.9941 17.4069 30.9941C19.339 30.9941 20.8478 30.7322 22.4442 30.4544C24.5166 30.0947 26.8658 29.6873 30.8331 29.6873C32.309 29.6873 33.3491 28.4813 33.687 26.3808C34.2836 22.6854 32.59 17.8106 30.269 16.5388ZM14.6863 22.1642C14.1769 21.9294 13.6924 21.7068 13.2929 21.5602C13.2636 21.5496 13.2312 21.5405 13.202 21.5299C13.4315 21.1703 13.898 20.5609 14.8181 19.7003C14.7485 20.7192 14.7065 21.6611 14.6863 22.1642ZM23.3871 5.95686L24.8863 7.50492L23.3903 9.0498L21.8911 7.50173L23.3871 5.95686ZM21.2138 8.20139L22.713 9.74945L11.6093 21.2181C10.1511 21.1251 8.40005 21.5225 6.8929 22.994L21.2138 8.20139ZM5.77674 20.5641C7.9469 18.7749 9.28618 16.9139 10.3795 15.4391C12.2622 12.8982 13.2461 11.4186 16.0341 12.598L6.19005 22.7667C5.7029 22.4793 4.54849 21.5767 5.77674 20.5641ZM4.03902 27.4905L5.61099 24.5644L5.74646 24.7041C5.5769 25.2646 5.60714 25.8666 5.83199 26.4073L4.03902 27.4905ZM32.9289 26.0652C32.785 26.962 31.7023 28.1828 30.4788 28.1828C26.4185 28.1828 24.3747 28.781 22.2551 29.1241C18.1517 29.7877 15.106 28.9435 13.78 28.0983C10.4565 25.9807 8.64443 27.073 7.11709 25.8963C6.62568 25.5175 6.66977 24.592 7.15055 24.0135C9.27555 21.4625 12.0423 21.8901 12.9401 22.3162C15.5246 23.5434 17.8749 23.724 18.5034 23.5869C19.1329 23.4584 19.6896 23.1162 20.1242 22.6875C19.6301 23.0504 19.0532 23.2894 18.4646 23.3208C17.8776 23.3617 16.1871 22.8341 15.9008 22.7114C15.7972 22.203 15.6304 21.2967 15.615 20.6321C16.6743 21.7121 17.8388 21.9863 17.8388 21.9863L15.573 18.9985C15.573 18.9985 18.888 15.3483 21.0937 14.2279C24.8072 15.318 28.7097 16.541 29.8328 17.1572C31.7442 18.2043 33.4442 22.8713 32.9289 26.0652Z" fill="#F6F5F4"/>
</svg>
