<svg width="160" height="56" viewBox="0 0 160 56" fill="none" xmlns="http://www.w3.org/2000/svg">
<path d="M32.2811 37.9369H28.1849V27.6164H25.3945V24.2563H28.1848V21.8653C28.1848 19.032 29.419 17 33.5041 17C34.3681 17 35.7246 17.176 35.7246 17.176V20.2961H34.2998C32.8482 20.2961 32.2814 20.7424 32.2814 21.9762V24.2563H35.6702L35.3684 27.6164H32.2813L32.2811 37.9369ZM41.68 23.9878C41.6203 23.9878 41.5589 23.99 41.4981 23.9915C37.6999 23.9915 35.9621 26.8791 35.9621 30.9781C35.9621 36.1417 38.2163 38.2084 41.5278 38.2084C43.4225 38.2084 44.6673 37.4024 45.4239 35.8983V37.9383H49.32V24.2577H45.4239V26.3616C44.8061 25.008 43.5265 24.0038 41.68 23.9878ZM42.6706 27.2205C44.2659 27.2205 45.2234 28.3451 45.2234 30.258L45.2271 32.2118C45.2271 33.5012 44.4363 35.0095 42.6706 35.0095C39.9562 35.0095 40.0287 32.0473 40.0287 31.0606C40.0287 27.7418 41.475 27.2205 42.6706 27.2205ZM50.8934 31.0988C50.8934 29.4363 50.8147 23.9967 57.8267 23.9967C60.6415 23.9967 61.8169 24.9012 61.8169 24.9012L60.8722 27.8626C60.8722 27.8626 59.6984 27.2093 58.1688 27.2093C56.2098 27.2093 54.9598 28.3571 54.9598 30.3766L54.962 31.8247C54.962 33.7652 56.1681 35.0605 58.1729 35.0605C59.5663 35.0605 60.8506 34.4011 60.8506 34.4011L61.7928 37.3005C61.7928 37.3005 60.7181 38.2108 57.8464 38.2108C51.1698 38.2108 50.8934 33.3304 50.8934 31.0988ZM84.661 23.9915C88.4593 23.9915 90.2245 26.8791 90.2245 30.9781C90.2245 36.1417 87.9702 38.2084 84.6587 38.2084C82.764 38.2084 81.3634 37.4025 80.6068 35.8983V37.9383L76.7598 37.9368V17.416L80.8444 17.0559V26.1763C81.4339 24.5806 83.3712 23.9915 84.661 23.9915ZM83.5158 27.2205C81.9206 27.2205 80.8444 28.3451 80.8444 30.258L80.8406 32.2118C80.8382 33.5012 81.5859 35.0095 83.5158 35.0095C86.2303 35.0095 86.1578 32.0473 86.1578 31.0606C86.1578 27.7418 84.7116 27.2205 83.5158 27.2205ZM68.9039 24.0028C64.5959 24.0028 62.3215 26.3768 62.3215 30.5955V31.3794C62.3215 36.8549 65.5154 38.2646 69.3232 38.2646C73.0244 38.2646 74.6997 37.2184 74.6997 37.2184L73.9353 34.4321C73.9353 34.4321 71.9647 35.2795 69.8129 35.2795C67.5823 35.2795 66.6229 34.7049 66.377 32.5383H75.0262V30.303C75.0262 25.7267 72.4738 24.0028 68.9039 24.0028ZM69.0077 26.7929C70.499 26.7929 71.4653 27.7171 71.4122 29.8605H66.3845C66.4717 27.6046 67.5138 26.7929 69.0077 26.7929ZM98.369 23.9841C93.9449 23.9841 91.6159 26.5038 91.6159 31.0193C91.6159 37.2148 95.6306 38.2121 98.3764 38.2121C102.396 38.2121 105.07 36.025 105.07 31.0756C105.07 25.9241 102.063 23.9841 98.369 23.9841ZM98.3133 27.2317C100.259 27.2317 101.029 28.7032 101.029 30.3781V31.8182C101.029 33.8472 99.9509 35.0209 98.3059 35.0209C96.7675 35.0209 95.6863 33.923 95.6863 31.8182V30.3781C95.6863 28.1333 96.9729 27.2317 98.3133 27.2317ZM113.207 23.9841C108.783 23.9841 106.454 26.5038 106.454 31.0193C106.454 37.2148 110.469 38.2121 113.215 38.2121C117.234 38.2121 119.908 36.025 119.908 31.0756C119.908 25.9241 116.902 23.9841 113.207 23.9841ZM113.152 27.2317C115.097 27.2317 115.868 28.7032 115.868 30.3781V31.8182C115.868 33.8472 114.789 35.0209 113.144 35.0209C111.606 35.0209 110.525 33.923 110.525 31.8182V30.3781C110.525 28.1333 111.811 27.2317 113.152 27.2317ZM121.452 37.9369V17.416L125.548 17.0559V30.8103L129.613 24.2563H133.939L129.699 31.0444L134.102 37.9369H129.764L125.548 31.2443V37.9369H121.452Z" fill="#1A1A1A"/>
</svg>
