<svg width="160" height="56" viewBox="0 0 160 56" fill="none" xmlns="http://www.w3.org/2000/svg">
<path fill-rule="evenodd" clip-rule="evenodd" d="M37.7513 22.3154V26.2894L47.2491 26.2852C46.9577 28.477 46.2186 30.0817 45.0953 31.2051C43.7101 32.5903 41.5479 34.1148 37.7513 34.1148C31.8981 34.1148 27.3202 29.3976 27.3202 23.5444C27.3202 17.6911 31.8981 12.9739 37.7513 12.9739C40.9102 12.9739 43.216 14.2155 44.9179 15.8119L47.7221 13.0077C45.3487 10.7399 42.1898 9 37.7555 9C29.7401 9 23 15.5289 23 23.5444C23 31.5598 29.7401 38.0887 37.7555 38.0887C42.08 38.0887 45.3444 36.6698 47.8994 34.0092C50.5262 31.3825 51.3413 27.6957 51.3413 24.7142C51.3413 23.8273 51.2737 23.008 51.1428 22.3154H37.7513ZM117.868 37.5189V10.0687H113.856V37.5189H117.868ZM62.3346 38.0936C67.5121 38.0936 71.731 34.1196 71.731 28.7267C71.731 23.2958 67.5121 19.3599 62.3346 19.3599C57.1571 19.3599 52.9382 23.2958 52.9382 28.7267C52.9382 34.1196 57.1571 38.0936 62.3346 38.0936ZM62.3346 23.0509C65.1725 23.0509 67.6177 25.3567 67.6177 28.7267C67.6177 32.0587 65.1725 34.4026 62.3346 34.4026C59.4967 34.4026 57.0515 32.063 57.0515 28.7267C57.0515 25.3567 59.4967 23.0509 62.3346 23.0509ZM82.605 38.0936C87.7825 38.0936 92.0014 34.1196 92.0014 28.7267C92.0014 23.2958 87.7825 19.3599 82.605 19.3599C77.4275 19.3599 73.2086 23.3 73.2086 28.7267C73.2086 34.1196 77.4275 38.0936 82.605 38.0936ZM82.605 23.0509C85.443 23.0509 87.8881 25.3567 87.8881 28.7267C87.8881 32.0587 85.443 34.4026 82.605 34.4026C79.7671 34.4026 77.3219 32.063 77.3219 28.7267C77.3219 25.3567 79.7671 23.0509 82.605 23.0509ZM111.428 19.93V36.7422C111.428 43.6596 107.349 46.4849 102.526 46.4849C97.986 46.4849 95.2536 43.4484 94.2232 40.9653L97.8044 39.4745C98.4421 40.9991 100.005 42.7981 102.522 42.7981C105.609 42.7981 107.522 40.8935 107.522 37.3081V35.9609H107.378C106.458 37.0969 104.684 38.0893 102.446 38.0893C97.7622 38.0893 93.4715 34.0098 93.4715 28.7605C93.4715 23.4732 97.7622 19.3599 102.446 19.3599C104.68 19.3599 106.453 20.3523 107.378 21.4545H107.522V19.93H111.428ZM107.813 28.7605C107.813 25.4622 105.613 23.0509 102.813 23.0509C99.9751 23.0509 97.5975 25.4622 97.5975 28.7605C97.5975 32.025 99.9751 34.4026 102.813 34.4026C105.613 34.4026 107.813 32.025 107.813 28.7605ZM133.502 31.8093L136.695 33.9377C135.664 35.4623 133.181 38.089 128.891 38.089C123.569 38.089 119.596 33.9757 119.596 28.7222C119.596 23.1519 123.603 19.3553 128.43 19.3553C133.291 19.3553 135.669 23.2237 136.446 25.3141L136.872 26.3784L124.351 31.5643C125.309 33.4436 126.8 34.4023 128.891 34.4023C130.985 34.4023 132.438 33.3718 133.502 31.8093ZM123.675 28.4392L132.045 24.9636C131.585 23.7938 130.2 22.9788 128.57 22.9788C126.479 22.9788 123.569 24.8243 123.675 28.4392Z" fill="#1A1A1A"/>
</svg>
