<svg width="248" height="52" viewBox="0 0 248 52" fill="none" xmlns="http://www.w3.org/2000/svg">
<g clip-path="url(#clip0_6542_1458)">
<path d="M88.0231 40.5777V22.8382H81.2549V19.8467H98.0847V22.8382H91.354V40.5777H88.0231Z" fill="#1A1A1A"/>
<path d="M112.13 34.4172H100.359C100.413 34.94 100.573 35.4463 100.828 35.9047C101.084 36.3632 101.43 36.7643 101.845 37.0834C102.699 37.7544 103.783 38.0899 105.097 38.0899C105.905 38.0858 106.707 37.9406 107.466 37.661C108.261 37.375 108.874 36.9948 109.306 36.5204L111.277 38.4457C110.503 39.2676 109.55 39.8964 108.492 40.282C107.389 40.7116 106.217 40.9326 105.034 40.934C102.661 40.934 100.764 40.2329 99.3434 38.8308C97.9227 37.4286 97.2116 35.5529 97.21 33.2035C97.21 30.972 97.9162 29.1442 99.3288 27.7201C100.741 26.296 102.576 25.5856 104.832 25.5889C107.264 25.5889 109.157 26.3395 110.512 27.8407C111.866 29.342 112.406 31.5341 112.13 34.4172ZM100.419 31.8412H109.212C109.132 30.7153 108.705 29.8465 107.933 29.2348C107.16 28.623 106.154 28.3168 104.915 28.316C103.777 28.316 102.801 28.6222 101.988 29.2348C101.174 29.8473 100.651 30.7161 100.419 31.8412Z" fill="#1A1A1A"/>
<path d="M126.163 36.6389L128.222 38.6824C126.688 40.2031 124.854 40.9635 122.719 40.9635C120.521 40.9635 118.696 40.2921 117.245 38.9493C115.794 37.6064 115.067 35.7209 115.065 33.2928C115.065 30.8638 115.792 28.9779 117.245 27.6351C118.698 26.2923 120.522 25.6213 122.719 25.6221C123.693 25.6059 124.66 25.7891 125.561 26.1605C126.463 26.5319 127.28 27.0837 127.963 27.7825L126.025 29.826C125.143 28.9576 124.053 28.5234 122.756 28.5234C121.422 28.5234 120.313 28.9625 119.43 29.8407C118.547 30.7188 118.106 31.8691 118.107 33.2916C118.107 34.7717 118.548 35.9269 119.43 36.7571C120.313 37.5873 121.412 38.0016 122.727 38C124.137 38.0008 125.283 37.5471 126.163 36.6389Z" fill="#1A1A1A"/>
<path d="M131.67 19.8467H134.697V28.1401C135.815 26.56 137.384 25.77 139.406 25.77C141.386 25.77 142.877 26.387 143.878 27.621C144.879 28.8549 145.38 30.5483 145.38 32.7011V40.5777H142.353V32.7303C142.353 31.3875 142.03 30.3655 141.384 29.6645C140.738 28.9634 139.845 28.6133 138.706 28.6141C138.165 28.6003 137.628 28.7058 137.132 28.9233C136.637 29.1407 136.194 29.4648 135.836 29.8728C135.081 30.712 134.703 31.7433 134.704 32.9667V40.5777H131.677L131.67 19.8467Z" fill="#1A1A1A"/>
<path d="M168.839 40.5777V22.157L160.952 34.2998H160.429L152.482 22.157V40.5777H150.888V19.8467H152.77L160.657 31.9261L168.456 19.8418H170.393V40.5777H168.839Z" fill="#1A1A1A"/>
<path d="M187.82 38.7713C186.407 40.1376 184.651 40.8208 182.552 40.8208C180.452 40.8208 178.696 40.1397 177.284 38.7773C175.872 37.415 175.166 35.5986 175.166 33.328C175.166 31.0575 175.872 29.2211 177.284 27.819C178.697 26.4136 180.453 25.7109 182.552 25.7109C184.65 25.7109 186.406 26.4116 187.82 27.8129C189.233 29.2151 189.94 31.0514 189.939 33.3219C189.938 35.5925 189.232 37.4089 187.82 38.7713ZM178.285 37.7355C179.421 38.8403 180.844 39.3931 182.552 39.3939C184.26 39.3947 185.684 38.8419 186.823 37.7355C187.962 36.6291 188.531 35.1579 188.531 33.3219C188.531 31.4665 187.957 29.9612 186.809 28.806C185.661 27.6509 184.244 27.0733 182.557 27.0733C180.869 27.0733 179.451 27.6509 178.304 28.806C177.157 29.9612 176.583 31.4665 176.583 33.3219C176.579 35.1579 177.147 36.6291 178.285 37.7355Z" fill="#1A1A1A"/>
<path d="M204.946 27.6612L204.063 28.6092C202.902 27.5856 201.393 27.0738 199.536 27.0738C198.3 27.0543 197.255 27.2765 196.403 27.7404C195.55 28.2042 195.133 28.8801 195.152 29.768C195.142 30.0657 195.21 30.3609 195.349 30.6237C195.489 30.8864 195.695 31.1075 195.946 31.2644C196.18 31.4262 196.422 31.5743 196.673 31.7079C196.988 31.8547 197.319 31.9643 197.66 32.0345L198.586 32.2563C198.753 32.2965 199.081 32.355 199.571 32.4342C201.572 32.7705 202.926 33.1259 203.634 33.5004C204.987 34.1714 205.633 35.2474 205.571 36.7283C205.55 37.7356 205.206 38.5602 204.54 39.202C203.914 39.8206 203.138 40.2645 202.29 40.4899C201.409 40.7125 200.504 40.8218 199.597 40.8153C198.317 40.8267 197.049 40.5698 195.874 40.061C194.726 39.5565 193.848 38.8307 193.24 37.8835L194.3 36.9355C194.874 37.7694 195.677 38.4178 196.61 38.8023C197.563 39.2129 198.589 39.4243 199.626 39.4237C200.287 39.4302 200.947 39.3677 201.595 39.2373C202.229 39.0963 202.82 38.8014 203.315 38.3782C203.576 38.1717 203.786 37.9085 203.932 37.6085C204.077 37.3084 204.153 36.9792 204.154 36.6455C204.182 36.266 204.089 35.8874 203.889 35.5646C203.713 35.281 203.489 35.0306 203.227 34.825C202.886 34.5927 202.508 34.422 202.109 34.3205C201.609 34.1726 201.192 34.0642 200.858 33.9951C200.524 33.9257 200.044 33.8428 199.416 33.7429C198.69 33.6243 198.121 33.5207 197.709 33.4322C197.211 33.3184 196.72 33.1752 196.238 33.0032C195.764 32.8569 195.321 32.6262 194.928 32.3221C194.599 32.0338 194.325 31.6873 194.119 31.2997C193.875 30.8405 193.753 30.3253 193.766 29.8046C193.746 28.4617 194.301 27.4398 195.429 26.7387C196.558 26.0377 197.927 25.6952 199.536 25.7115C201.77 25.7115 203.573 26.3614 204.946 27.6612Z" fill="#1A1A1A"/>
<path d="M222.309 25.9476H223.752V40.5774H222.31V37.4689C220.936 39.7037 218.955 40.8211 216.366 40.8211C214.305 40.8211 212.559 40.1103 211.127 38.6886C209.695 37.267 208.98 35.4595 208.98 33.2661C208.98 31.0728 209.692 29.2758 211.114 27.8753C212.536 26.4748 214.287 25.7729 216.366 25.7697C217.572 25.7622 218.76 26.0575 219.824 26.6287C220.887 27.1957 221.753 28.0735 222.31 29.1462L222.309 25.9476ZM216.365 27.1661C214.677 27.1661 213.265 27.7348 212.127 28.8721C210.99 30.0094 210.421 31.4757 210.42 33.271C210.42 35.0671 210.989 36.5379 212.127 37.6833C213.265 38.8288 214.678 39.4015 216.365 39.4015C217.396 39.4219 218.416 39.1881 219.336 38.7203C220.135 38.3232 220.816 37.7203 221.309 36.9729C221.767 36.2427 222.105 35.4422 222.309 34.6029C222.524 33.7426 222.524 32.842 222.309 31.9818C222.107 31.1376 221.769 30.3324 221.309 29.5983C220.857 28.8867 220.199 28.3042 219.336 27.8509C218.417 27.3809 217.397 27.1445 216.366 27.1625L216.365 27.1661Z" fill="#1A1A1A"/>
<path d="M229.21 22.0242C229.094 21.9167 229.001 21.7861 228.938 21.6408C228.875 21.4954 228.842 21.3384 228.842 21.1797C228.842 21.021 228.875 20.864 228.938 20.7187C229.001 20.5733 229.094 20.4428 229.21 20.3353C229.427 20.1353 229.71 20.0244 230.004 20.0244C230.298 20.0244 230.582 20.1353 230.798 20.3353C230.914 20.4428 231.007 20.5733 231.07 20.7187C231.134 20.864 231.166 21.021 231.166 21.1797C231.166 21.3384 231.134 21.4954 231.07 21.6408C231.007 21.7861 230.914 21.9167 230.798 22.0242C230.582 22.2241 230.298 22.335 230.004 22.335C229.71 22.335 229.427 22.2241 229.21 22.0242ZM230.695 25.8894H229.253V40.5777H230.695V25.8894Z" fill="#1A1A1A"/>
<path d="M247.029 37.6526L247.998 38.6275C246.545 40.0897 244.779 40.8208 242.7 40.8208C240.602 40.8208 238.831 40.1251 237.389 38.7335C235.946 37.3419 235.226 35.5194 235.228 33.2659C235.228 30.9913 235.939 29.1635 237.361 27.7825C238.783 26.4014 240.564 25.7109 242.703 25.7109C244.743 25.7109 246.508 26.4421 248 27.9043L247.087 28.8231C245.93 27.6582 244.468 27.0757 242.703 27.0757C240.996 27.0757 239.558 27.6334 238.391 28.7488C237.224 29.8641 236.641 31.3698 236.641 33.2659C236.641 35.1603 237.224 36.6656 238.391 37.7818C239.558 38.898 240.996 39.4557 242.703 39.4549C243.508 39.4675 244.307 39.3141 245.051 39.0041C245.795 38.6942 246.468 38.2342 247.029 37.6526Z" fill="#1A1A1A"/>
<path d="M44.2805 7.3916H36.8936V14.8259H44.2805V7.3916Z" fill="#E85783"/>
<path d="M51.6682 7.3916H44.2812V14.8259H51.6682V7.3916Z" fill="#DC3984"/>
<path d="M59.0559 7.3916H51.6689V14.8259H59.0559V7.3916Z" fill="#BE3684"/>
<path d="M66.4426 7.3916H59.0557V14.8259H66.4426V7.3916Z" fill="#A13687"/>
<path d="M30.4407 0H23.0537V7.43432H30.4407V0Z" fill="#FF9487"/>
<path d="M7.38696 7.3916H0V14.8259H7.38696V7.3916Z" fill="#FFB76E"/>
<path d="M44.2805 14.8262H36.8936V22.2605H44.2805V14.8262Z" fill="#E73C83"/>
<path d="M51.6682 14.8262H44.2812V22.2605H51.6682V14.8262Z" fill="#CD3884"/>
<path d="M59.0559 14.8262H51.6689V22.2605H59.0559V14.8262Z" fill="#AF3686"/>
<path d="M66.4426 14.8262H59.0557V22.2605H66.4426V14.8262Z" fill="#923787"/>
<path d="M36.8938 14.8262H29.5068V22.2605H36.8938V14.8262Z" fill="#ED7D82"/>
<path d="M22.1184 7.43457H14.7314V14.8689H22.1184V7.43457Z" fill="#FF9E81"/>
<path d="M29.4631 14.8262H22.0762V22.2605H29.4631V14.8262Z" fill="#FF9E81"/>
<path d="M59.0559 22.2607H51.6689V29.6951H59.0559V22.2607Z" fill="#BE3684"/>
<path d="M66.4426 22.2607H59.0557V29.6951H66.4426V22.2607Z" fill="#A13687"/>
<path d="M36.8938 22.2607H29.5068V29.6951H36.8938V22.2607Z" fill="#EB6B83"/>
<path d="M14.7317 14.8701H7.34473V22.3044H14.7317V14.8701Z" fill="#FFB76E"/>
<path d="M7.38696 22.2607H0V29.6951H7.38696V22.2607Z" fill="#FFB76E"/>
<path d="M59.0559 29.6963H51.6689V37.1306H59.0559V29.6963Z" fill="#AF3686"/>
<path d="M66.4426 29.6963H59.0557V37.1306H66.4426V29.6963Z" fill="#923787"/>
<path d="M36.8938 29.6963H29.5068V37.1306H36.8938V29.6963Z" fill="#ED7D82"/>
<path d="M29.5051 29.6963H22.1182V37.1306H29.5051V29.6963Z" fill="#FF9487"/>
<path d="M22.1623 22.3037H14.7754V29.738H22.1623V22.3037Z" fill="#FF9487"/>
<path d="M44.2805 37.1299H36.8936V44.5642H44.2805V37.1299Z" fill="#E85783"/>
<path d="M51.6682 37.1299H44.2812V44.5642H51.6682V37.1299Z" fill="#DC3984"/>
<path d="M59.0559 37.1299H51.6689V44.5642H59.0559V37.1299Z" fill="#BE3684"/>
<path d="M66.4426 37.1299H59.0557V44.5642H66.4426V37.1299Z" fill="#A13687"/>
<path d="M36.8938 37.1299H29.5068V44.5642H36.8938V37.1299Z" fill="#EB6B83"/>
<path d="M22.1184 37.1299H14.7314V44.5642H22.1184V37.1299Z" fill="#FF9E81"/>
<path d="M44.2805 44.5645H36.8936V51.9988H44.2805V44.5645Z" fill="#E73C83"/>
<path d="M51.6682 44.5645H44.2812V51.9988H51.6682V44.5645Z" fill="#CD3884"/>
<path d="M59.0559 44.5645H51.6689V51.9988H59.0559V44.5645Z" fill="#AF3686"/>
<path d="M66.4426 44.5645H59.0557V51.9988H66.4426V44.5645Z" fill="#923787"/>
<path d="M36.8938 44.5645H29.5068V51.9988H36.8938V44.5645Z" fill="#ED7D82"/>
<path d="M29.5051 44.5645H22.1182V51.9988H29.5051V44.5645Z" fill="#FF9487"/>
</g>
<defs>
<clipPath id="clip0_6542_1458">
<rect width="248" height="52" fill="white"/>
</clipPath>
</defs>
</svg>
