<svg width="160" height="56" viewBox="0 0 160 56" fill="none" xmlns="http://www.w3.org/2000/svg">
<path fill-rule="evenodd" clip-rule="evenodd" d="M26.6103 11.1182C17.2868 11.1182 9.72852 18.6764 9.72852 27.9999C9.72852 35.1519 14.1783 41.2658 20.4581 43.7256C20.3106 42.3899 20.1772 40.3357 20.5167 38.8776C20.8235 37.56 22.4962 30.4863 22.4962 30.4863C22.4962 30.4863 21.9913 29.4749 21.9913 27.9798C21.9913 25.6324 23.3519 23.8799 25.046 23.8799C26.4863 23.8799 27.1819 24.9613 27.1819 26.2579C27.1819 27.1823 26.8063 28.3988 26.4108 29.6797C26.1866 30.4059 25.956 31.1527 25.7838 31.8788C25.3861 33.5591 26.6265 34.9294 28.2837 34.9294C31.2842 34.9294 33.5906 31.7656 33.5906 27.1988C33.5906 23.1567 30.6862 20.3307 26.539 20.3307C21.7355 20.3307 18.9161 23.9335 18.9161 27.6569C18.9161 29.1078 19.475 30.6637 20.1725 31.5095C20.3105 31.6766 20.3307 31.823 20.2896 31.9937C20.2173 32.2943 20.0953 32.7899 19.9925 33.2071C19.9131 33.5299 19.8451 33.8058 19.8207 33.9082C19.7471 34.2172 19.5761 34.2828 19.2561 34.1339C17.1477 33.1525 15.8295 30.0699 15.8295 27.5939C15.8295 22.2686 19.6987 17.378 26.9839 17.378C32.8402 17.378 37.3912 21.5511 37.3912 27.1281C37.3912 32.9462 33.7228 37.6285 28.6311 37.6285C26.9204 37.6285 25.3122 36.7398 24.7617 35.6901C24.7617 35.6901 23.9152 38.9133 23.71 39.7032C23.3289 41.1695 22.3 43.0075 21.6118 44.1289C23.1913 44.6179 24.8699 44.8817 26.6103 44.8817C35.9339 44.8817 43.4922 37.3234 43.4922 27.9999C43.4922 18.6764 35.9339 11.1182 26.6103 11.1182ZM65.35 23.1727H69.8214V37.2177H65.35V23.1727ZM75.0619 23.1727H70.7551V37.2177H75.2265V29.4545C75.2265 27.7264 76.2141 26.4918 77.6954 26.4918C79.1492 26.4918 79.8899 27.5069 79.8899 28.9883V37.2177H84.3612V28.083C84.3612 24.9558 82.5507 22.7613 79.4784 22.7613C77.5307 22.7613 76.1866 23.5841 75.1441 25.0929H75.0619V23.1727ZM70.2671 19.4153C70.2671 17.9339 69.0662 16.7332 67.5849 16.7332C66.1037 16.7332 64.9028 17.9339 64.9028 19.4153C64.9028 20.8966 66.1037 22.0974 67.5849 22.0974C69.0662 22.0974 70.2671 20.8966 70.2671 19.4153ZM115.365 22.9534C115.536 22.9534 115.682 22.9585 115.81 22.97V26.8669C113.253 26.6305 111.634 27.9851 111.634 30.9085V37.2177H107.163V23.1728H111.442V25.3673H111.525C112.512 23.694 113.664 22.9534 115.365 22.9534ZM137.75 28.358C137.53 28.3174 137.313 28.2797 137.102 28.243C135.599 27.9821 134.376 27.7699 134.376 26.9043C134.376 26.0264 135.227 25.615 136.324 25.615C137.558 25.615 138.409 25.999 138.573 27.2609H142.688C142.469 24.4903 140.329 22.762 136.352 22.762C133.032 22.762 130.289 24.2982 130.289 27.2609C130.289 30.5525 132.895 31.2109 135.337 31.6225C135.532 31.6569 135.725 31.6892 135.915 31.721C137.539 31.9927 138.903 32.2208 138.903 33.3506C138.903 34.2559 138.052 34.7497 136.708 34.7497C135.36 34.7497 134.468 34.1791 134.194 33.0215H129.933C130.247 35.9088 132.781 37.6574 136.735 37.6574C140.411 37.6574 143.127 36.0664 143.127 32.9941C143.127 29.4005 140.219 28.7696 137.75 28.358ZM125.407 28.6868C125.243 27.0133 124.2 25.9435 122.747 25.9435C121.046 25.9435 120.168 27.0133 119.866 28.6868H125.407ZM119.839 31.3475C120.113 33.2403 121.155 34.4198 122.993 34.4198C124.173 34.4198 124.941 33.8988 125.325 33.021H129.687C129.385 34.2828 128.562 35.4898 127.328 36.3401C126.148 37.1631 124.722 37.6295 122.939 37.6295C118.303 37.6295 115.45 34.4198 115.45 30.1681C115.45 25.9709 118.385 22.7615 122.664 22.7615C124.667 22.7615 126.258 23.4199 127.465 24.5172C129.138 26.0532 129.961 28.4947 129.934 31.3475H119.839ZM151 33.9054L150.945 33.9076C150.745 33.9156 150.493 33.9256 150.259 33.9256C149.299 33.9256 148.696 33.6512 148.696 32.554V25.9703H151V23.1724H148.696V18.7284H144.334V23.1724H142.962V25.9703H144.334V33.5141C144.334 36.5317 146.199 37.3819 148.805 37.3819C149.8 37.3819 150.551 37.3075 151 37.2199V33.9054ZM91.7674 33.9268C91.9598 33.9268 92.1657 33.9199 92.3441 33.913V37.2501C91.8857 37.3244 91.1953 37.3831 90.3136 37.3831C87.7075 37.3831 85.8422 36.5329 85.8422 33.5153V25.9716H84.3878V23.1736H85.8422V18.7296H90.2038V23.1736H92.3441V25.9716H90.2038V32.5552C90.2038 33.6524 90.8075 33.9268 91.7674 33.9268ZM102.087 28.6868C101.923 27.0135 100.88 25.9435 99.426 25.9435C97.7253 25.9435 96.8475 27.0135 96.5457 28.6868H102.087ZM92.1293 30.1681C92.1293 25.971 95.0645 22.7616 99.3438 22.7616C101.346 22.7616 102.937 23.4199 104.144 24.5172C105.818 26.0534 106.641 28.4947 106.613 31.3477H96.5185C96.7926 33.2403 97.835 34.4199 99.6731 34.4199C100.853 34.4199 101.621 33.8988 102.005 33.021H106.366C106.064 34.2828 105.242 35.4898 104.007 36.3403C102.828 37.1631 101.401 37.6295 99.6181 37.6295C94.9821 37.6295 92.1293 34.4199 92.1293 30.1681ZM60.3287 24.215C60.3287 25.7788 59.3412 26.8212 57.5856 26.8212H54.1564V21.6914H57.5856C59.3137 21.6914 60.3287 22.6516 60.3287 24.215ZM57.3943 17.6041H49.6296V37.2177H54.1564V30.6616H58.08C62.1125 30.6616 64.7186 28.0006 64.7186 24.2426C64.7186 22.2675 64.0053 20.5941 62.7434 19.4146C61.5364 18.2624 59.7807 17.6041 57.3943 17.6041Z" fill="#1A1A1A"/>
</svg>
