<svg width="160" height="56" viewBox="0 0 160 56" fill="none" xmlns="http://www.w3.org/2000/svg">
<path fill-rule="evenodd" clip-rule="evenodd" d="M125 22.605V37.5193L116.908 43.2315H111.933V40.6926L108.201 43.2315H103.848V40.6926L101.049 43.2315H92.9645L90.4773 40.6926L89.855 43.2315L82.7187 43.212L79.9047 40.6926L79.5938 43.2315L71.5091 43.212L71.1983 40.6926L69.0219 43.212L56.5836 43.2315L54.0957 41.962V43.2315H47.2543L39.7913 38.4715L35.127 33.7116V12.7686H44.7664L49.4308 17.5285H70.576V12.7686H87.99V17.5285H92.3435V20.0674L94.8314 17.5285H100.118L104.782 12.7686H114.733V17.5285H120.019L125 22.605ZM47.2543 19.7489H42.9008V14.989H37.3034V32.76L40.7238 36.5677H47.2543V30.5383H42.9008V25.4618H47.2543V19.7489ZM70.576 19.7489H64.9785V30.5389H62.8021V19.7489H57.5155V30.5389H55.3391V19.7489H49.4308V36.5677H66.8448L70.576 32.76V19.7489ZM78.0391 19.7489H72.7524V36.5677H78.0391V19.7489ZM78.0391 14.989H72.7524V17.5279H78.0391V14.989ZM90.1664 19.7489H85.8129V14.989H80.2161V32.76L83.6365 36.5677H90.1652V30.5383H85.8117V25.4618H90.1652L90.1664 19.7489ZM104.47 19.7489H95.7639L92.3435 23.2394V32.76L96.0747 36.5677H104.47V30.5383H98.2505V25.4618H104.47L104.47 19.7489ZM122.817 23.2394L119.086 19.7489H112.556V14.989H106.647V36.5677H112.556V25.4605H116.909V36.567H122.817L122.817 23.2394Z" fill="#1A1A1A"/>
</svg>
