<svg width="26" height="26" viewBox="0 0 26 26" fill="none" xmlns="http://www.w3.org/2000/svg">
<path d="M11.562 17.804C11.023 17.7438 10.4929 17.6212 9.9822 17.4386C9.99775 17.0716 10.006 16.6891 10.0071 16.291V15.767C10.4891 15.9972 11.0131 16.1573 11.562 16.2366V12.4037C11.562 11.7851 11.8077 11.1919 12.2452 10.7545C12.6826 10.317 13.2758 10.0713 13.8944 10.0713H17.7273C17.6033 9.2097 17.2744 8.39041 16.7683 7.68219C16.2622 6.97398 15.5935 6.39751 14.8185 6.00116C14.0435 5.60482 13.1847 5.40016 12.3142 5.40438C11.4437 5.40859 10.587 5.62155 9.81582 6.02538C9.6927 5.51685 9.49015 5.03092 9.21562 4.58551C10.2236 4.08237 11.3382 3.83008 12.4647 3.85006C13.5911 3.87005 14.696 4.16173 15.6856 4.70031C16.6751 5.23889 17.52 6.00844 18.1483 6.94354C18.7767 7.87864 19.1699 8.95163 19.2947 10.0713H21.6691C22.2877 10.0713 22.8809 10.317 23.3183 10.7545C23.7557 11.1919 24.0015 11.7851 24.0015 12.4037V20.1784C24.0015 20.797 23.7557 21.3902 23.3183 21.8276C22.8809 22.265 22.2877 22.5108 21.6691 22.5108H13.8944C13.2758 22.5108 12.6826 22.265 12.2452 21.8276C11.8077 21.3902 11.562 20.797 11.562 20.1784V17.804ZM19.2947 11.6262C19.1186 13.2041 18.4111 14.6751 17.2884 15.7977C16.1658 16.9204 14.6948 17.6279 13.1169 17.804V20.1784C13.1169 20.3846 13.1989 20.5823 13.3447 20.7281C13.4905 20.8739 13.6882 20.9558 13.8944 20.9558H21.6691C21.8753 20.9558 22.073 20.8739 22.2188 20.7281C22.3646 20.5823 22.4465 20.3846 22.4465 20.1784V12.4037C22.4465 12.1975 22.3646 11.9998 22.2188 11.854C22.073 11.7082 21.8753 11.6262 21.6691 11.6262H19.2947ZM17.7273 11.6262H13.8944C13.6882 11.6262 13.4905 11.7082 13.3447 11.854C13.1989 11.9998 13.1169 12.1975 13.1169 12.4037V16.2366C14.2802 16.069 15.3579 15.5293 16.189 14.6983C17.02 13.8672 17.5597 12.7895 17.7273 11.6262ZM8.13339 12.4986C7.97012 11.8984 7.70578 11.2966 7.25174 10.8348C7.98567 10.1397 8.45215 9.03262 8.45215 7.73891C8.45215 6.65512 8.2329 5.91031 7.8364 5.31477C7.65997 5.05901 7.45667 4.82287 7.22997 4.61039L6.96563 4.3616C6.87078 4.27297 6.78371 4.19211 6.6702 4.0786C6.43696 3.84536 6.41052 3.65877 6.41052 3.56081C6.40991 3.50629 6.41885 3.45208 6.43696 3.40065C6.50805 3.24691 6.52699 3.07416 6.49089 2.90866C6.4548 2.74317 6.36564 2.59399 6.23699 2.48382C6.10833 2.37364 5.94721 2.3085 5.77814 2.29829C5.60906 2.28808 5.44128 2.33337 5.3003 2.42727L5.29719 2.42882L5.29253 2.43193L5.27853 2.44126L5.23188 2.47236L5.07328 2.58898C4.89735 2.72229 4.72619 2.8618 4.56015 3.00725C4.16831 3.34934 3.66296 3.8578 3.30377 4.46423C2.98981 4.96676 2.73814 5.50561 2.55429 6.06892C2.3677 6.62714 2.23242 7.232 2.23242 7.73891C2.23242 9.03262 2.6989 10.1382 3.43283 10.8363C2.97879 11.2966 2.71445 11.8984 2.55118 12.5001C2.23242 13.6694 2.23242 15.1155 2.23242 16.2335V16.291C2.23242 19.4911 2.83107 21.3912 3.50902 22.5216C3.84955 23.0876 4.20408 23.4531 4.50107 23.6832C4.65975 23.806 4.8319 23.9103 5.01419 23.9942C5.11982 24.0327 5.23019 24.0568 5.34229 24.0657C5.4729 24.0657 5.67038 23.9942 5.67038 23.9942C5.85267 23.9103 6.02482 23.806 6.1835 23.6832C6.47894 23.4531 6.83657 23.0876 7.17555 22.5216C7.8535 21.3928 8.45215 19.4911 8.45215 16.291V16.2351C8.45215 15.1155 8.45215 13.671 8.13339 12.4986ZM4.54461 11.9232C4.72031 11.746 4.95511 11.6262 5.34229 11.6262C5.73102 11.6262 5.96426 11.7475 6.13997 11.9217C6.33589 12.1192 6.50537 12.4395 6.63288 12.9075C6.891 13.8576 6.89722 15.1046 6.89722 16.291C6.89722 19.3107 6.32967 20.9092 5.84142 21.7224C5.65483 22.0334 5.47912 22.234 5.34229 22.3599C5.14884 22.1701 4.98104 21.9558 4.84315 21.7224C4.3549 20.9076 3.78735 19.3107 3.78735 16.291C3.78735 15.1046 3.79357 13.8576 4.05169 12.9075C4.1792 12.441 4.34868 12.1207 4.54461 11.9232ZM5.34229 10.0713C4.74364 10.0713 3.78735 9.4058 3.78735 7.73891C3.78735 7.46991 3.86821 7.04386 4.02992 6.56183C4.17691 6.10661 4.3801 5.6715 4.63479 5.26657C4.77007 5.038 4.94578 4.81564 5.13548 4.61194C5.24121 4.80268 5.38634 4.99187 5.57086 5.17949C5.68437 5.293 5.83209 5.42984 5.95804 5.54801L6.15085 5.72839C6.31412 5.88699 6.44007 6.02538 6.54114 6.17932C6.72773 6.45765 6.89722 6.87903 6.89722 7.73891C6.89722 9.4058 5.94093 10.0713 5.34229 10.0713Z" fill="#F6F5F4"/>
</svg>
