<svg width="25" height="25" viewBox="0 0 25 25" fill="none" xmlns="http://www.w3.org/2000/svg">
<path d="M16.6033 11.6915L18.1733 10.1215L14.4233 6.37151L12.8533 7.94151L8.71328 3.81151C7.93328 3.03151 6.66328 3.03151 5.88328 3.81151L3.98328 5.71151C3.20328 6.49151 3.20328 7.76151 3.98328 8.54151L8.11328 12.6715L3.51328 17.2815C3.41328 17.3815 3.36328 17.5015 3.36328 17.6415V20.6815C3.36328 20.9615 3.58328 21.1815 3.86328 21.1815H6.90328C7.03328 21.1815 7.16328 21.1315 7.25328 21.0315L11.8733 16.4115L16.0033 20.5415C17.3233 21.8615 18.7633 20.6115 18.8333 20.5415L20.7333 18.6415C21.5133 17.8615 21.5133 16.5915 20.7333 15.8115L16.6033 11.6915ZM9.54328 11.2515L5.40328 7.12151L7.29328 5.22151L8.56328 6.49151L8.09328 6.98151C7.9063 7.16849 7.80126 7.42208 7.80126 7.68651C7.80126 7.95093 7.9063 8.20453 8.09328 8.39151C8.28026 8.57849 8.53386 8.68353 8.79828 8.68353C9.06271 8.68353 9.3163 8.57849 9.50328 8.39151L9.98328 7.91151L11.4333 9.36151L9.54328 11.2515ZM17.4233 19.1415L13.2933 15.0115L15.1933 13.1115L16.6433 14.5615L16.1633 15.0415C16.0707 15.1341 15.9973 15.244 15.9472 15.365C15.897 15.4859 15.8713 15.6156 15.8713 15.7465C15.8713 15.8774 15.897 16.0071 15.9472 16.1281C15.9973 16.249 16.0707 16.3589 16.1633 16.4515C16.2559 16.5441 16.3658 16.6175 16.4867 16.6676C16.6077 16.7177 16.7373 16.7435 16.8683 16.7435C16.9992 16.7435 17.1289 16.7177 17.2498 16.6676C17.3708 16.6175 17.4807 16.5441 17.5733 16.4515L18.0533 15.9715L19.3233 17.2415L17.4233 19.1415ZM21.0733 7.22151C21.166 7.12899 21.2395 7.01911 21.2897 6.89813C21.3399 6.77716 21.3657 6.64748 21.3657 6.51651C21.3657 6.38554 21.3399 6.25586 21.2897 6.13488C21.2395 6.01391 21.166 5.90402 21.0733 5.81151L18.7333 3.47151C18.2633 3.00151 17.6133 3.18151 17.3233 3.47151L15.4933 5.30151L19.2433 9.05151L21.0733 7.22151Z" fill="#F6F5F4"/>
</svg>
