<svg width="160" height="56" viewBox="0 0 160 56" fill="none" xmlns="http://www.w3.org/2000/svg">
<path d="M55.8518 24.3048C55.8518 21.8647 53.5108 19.3056 49.4419 19.3056C44.8788 19.3056 39.8689 22.6654 39.1018 29.3712C38.3179 36.1426 42.5134 39.1515 46.7425 39.1515C50.9716 39.1515 53.186 37.4968 55.4507 35.29C53.5032 32.8346 50.9883 33.9693 50.5064 34.2194C49.7086 34.664 48.8052 34.8838 47.8924 34.8554C46.2606 34.8554 44.5952 34.1203 44.5952 31.061C55.0512 30.0239 55.8503 26.7297 55.8503 24.3048H55.8518ZM50.6696 24.7059C50.6025 25.4578 50.3036 26.745 45.0085 27.4663C46.1218 23.4859 48.2569 23.187 49.2375 23.187C49.4363 23.1779 49.6347 23.2117 49.8192 23.2861C50.0037 23.3605 50.17 23.4737 50.3069 23.6181C50.4438 23.7625 50.548 23.9347 50.6124 24.1229C50.6768 24.3111 50.7 24.511 50.6803 24.709L50.6696 24.7059ZM32.9603 25.3587L30.5293 33.0329L28.8136 19.7082C24.9856 19.7082 22.9268 22.4503 21.8531 25.3419L18.8883 33.0497L18.472 25.4243C18.2463 21.88 15.0101 19.7235 12.3945 19.7235L15.5576 39.0006C19.5685 38.9853 21.7342 36.2585 22.8673 33.3669L25.3745 26.8136C25.3974 27.0805 27.107 39.0021 27.107 39.0021C31.1363 39.0021 33.3019 36.4445 34.4625 33.6521L40.1053 19.725C36.1325 19.725 34.0385 22.4503 32.9573 25.3587H32.9603ZM70.6391 19.2583C68.1578 19.2583 66.2621 20.6126 64.6607 22.6013V22.5861L66.0913 11C62.794 11 60.1129 13.8763 59.5974 18.1557L57.1177 38.8511C59.0164 38.8511 61.031 38.299 62.1138 36.8944C63.0807 38.148 64.528 39.1515 66.6769 39.1515C72.2373 39.1515 76.0516 32.6654 76.0516 26.5787C76.018 21.0274 73.3369 19.2736 70.6558 19.2736L70.6391 19.2583ZM70.1205 29.2065C69.541 32.5998 67.656 34.9072 65.8427 34.9072C64.0293 34.9072 63.2287 34.0883 63.2287 34.0883C63.5794 31.1143 63.796 29.2903 64.4609 27.718C65.1259 26.1456 66.7089 23.6384 68.3575 23.6384C69.9741 23.6384 70.7062 25.7949 70.1221 29.2049L70.1205 29.2065ZM89.9192 19.7098H86.0394L86.0546 19.5085C86.3215 16.9677 86.9209 15.6302 88.8974 15.4121C90.2471 15.2779 90.8464 14.5763 90.9959 13.8077L91.4794 11.1159C83.7014 11.0656 81.2399 14.4406 80.6131 19.5923L80.5979 19.7098H80.514C79.2482 19.7098 77.8512 21.1479 77.6163 22.9704L77.5324 23.6384H80.1312L77.9503 41.7259L77.2823 44.9697C77.3662 44.9697 77.4653 44.985 77.5477 44.985C81.1926 44.8508 83.526 41.9592 84.0415 37.7622L85.7435 23.6353H86.9636C88.1623 23.6353 89.5623 22.4305 89.8063 20.425L89.9192 19.7098ZM110.099 19.3742C105.62 19.3742 101.391 22.6837 100.095 27.8842C98.7982 33.0848 100.763 39.2354 107.354 39.2354C113.945 39.2354 117.72 32.8301 117.72 27.4984C117.726 22.1987 114.148 19.3727 110.101 19.3727L110.099 19.3742ZM111.914 29.0372C111.682 31.395 110.648 34.9728 107.818 34.9728C104.987 34.9728 105.37 30.7941 105.644 28.8038C105.945 26.6809 107.127 23.6552 109.674 23.6552C111.964 23.6552 112.179 26.3805 111.915 29.0387L111.914 29.0372ZM139.854 25.3419L137.423 33.0161C137.357 32.4137 135.708 19.6915 135.708 19.6915C131.88 19.6915 129.831 22.4336 128.757 25.3251L125.792 33.0329C125.777 32.4808 125.376 25.4075 125.376 25.4075C125.135 21.8632 121.902 19.7067 119.276 19.7067L122.422 38.9838C126.433 38.9685 128.598 36.2417 129.732 33.3501L132.23 26.7968C132.245 27.0637 133.962 38.9853 133.962 38.9853C137.991 38.9853 140.148 36.4277 141.318 33.6353L146.965 19.7082C143.003 19.7082 140.904 22.4336 139.838 25.3419H139.854ZM93.5824 11.1129L90.3188 37.5426L89.6508 40.8032C89.7331 40.8032 89.8338 40.8185 89.9161 40.8185C93.4269 40.7681 95.925 37.6768 96.3932 33.7802L98.2736 18.6163C98.844 13.9846 96.0973 11.1098 93.5824 11.1098V11.1129Z" fill="#1A1A1A"/>
</svg>
