<svg width="160" height="56" viewBox="0 0 160 56" fill="none" xmlns="http://www.w3.org/2000/svg">
<path fill-rule="evenodd" clip-rule="evenodd" d="M54.7188 15.9658C56.2872 16.3881 57.5238 17.6247 57.9461 19.1931C58.7303 22.0585 58.7001 28.0305 58.7001 28.0305C58.7001 28.0305 58.7001 33.9723 57.9461 36.8376C57.5238 38.406 56.2872 39.6427 54.7188 40.0649C51.8534 40.819 40.392 40.819 40.392 40.819C40.392 40.819 28.9608 40.819 26.0653 40.0348C24.4969 39.6125 23.2603 38.3759 22.838 36.8075C22.084 33.9723 22.084 28.0003 22.084 28.0003C22.084 28.0003 22.084 22.0585 22.838 19.1931C23.2603 17.6247 24.5271 16.3579 26.0653 15.9357C28.9307 15.1816 40.392 15.1816 40.392 15.1816C40.392 15.1816 51.8534 15.1816 54.7188 15.9658ZM46.2716 28.0003L36.7406 33.4897V22.5109L46.2716 28.0003ZM75.2596 38.5266C74.5357 38.044 74.023 37.2899 73.7214 36.2343C73.4198 35.2088 73.2689 33.8214 73.2689 32.1323V29.8099C73.2689 28.0907 73.4499 26.7032 73.7817 25.6476C74.1436 24.5919 74.6865 23.8379 75.4104 23.3553C76.1645 22.8727 77.1296 22.6314 78.3361 22.6314C79.5124 22.6314 80.4776 22.8727 81.2014 23.3553C81.9253 23.8379 82.4381 24.6221 82.7698 25.6476C83.1016 26.6731 83.2826 28.0605 83.2826 29.8099V32.1323C83.2826 33.8515 83.1318 35.2088 82.8 36.2644C82.4682 37.2899 81.9555 38.0741 81.2316 38.5567C80.5077 39.0393 79.5124 39.2806 78.2758 39.2806C77.009 39.2504 75.9835 39.0091 75.2596 38.5266ZM79.3314 35.993C79.5425 35.4802 79.633 34.6056 79.633 33.4293V28.4224C79.633 27.2763 79.5425 26.4318 79.3314 25.8889C79.1203 25.346 78.7885 25.1047 78.2758 25.1047C77.7932 25.1047 77.4312 25.3761 77.2503 25.8889C77.0391 26.4318 76.9487 27.2763 76.9487 28.4224V33.4293C76.9487 34.6056 77.0391 35.4802 77.2503 35.993C77.4312 36.5057 77.7932 36.7772 78.3059 36.7772C78.7885 36.7772 79.1203 36.5359 79.3314 35.993ZM130.938 32.1625V32.9768C130.938 34.0023 130.968 34.7865 131.028 35.2993C131.089 35.812 131.209 36.2041 131.42 36.4152C131.601 36.6565 131.903 36.7772 132.325 36.7772C132.868 36.7772 133.23 36.5661 133.441 36.1438C133.652 35.7215 133.743 35.0278 133.773 34.0325L136.88 34.2135C136.91 34.3643 136.91 34.5452 136.91 34.7865C136.91 36.2644 136.518 37.3804 135.703 38.1043C134.889 38.8282 133.743 39.1901 132.265 39.1901C130.485 39.1901 129.249 38.617 128.525 37.5011C127.801 36.3851 127.439 34.6659 127.439 32.3133V29.5083C127.439 27.0953 127.801 25.346 128.555 24.23C129.309 23.114 130.576 22.5711 132.355 22.5711C133.592 22.5711 134.557 22.8124 135.221 23.2648C135.884 23.7172 136.337 24.4411 136.608 25.3761C136.88 26.3413 137 27.6684 137 29.3574V32.1021H130.938V32.1625ZM131.39 25.4063C131.209 25.6476 131.089 26.0095 131.028 26.5223C130.968 27.035 130.938 27.8192 130.938 28.8749V30.021H133.592V28.8749C133.592 27.8494 133.562 27.0652 133.502 26.5223C133.441 25.9794 133.29 25.6174 133.109 25.4063C132.928 25.1952 132.627 25.0745 132.265 25.0745C131.843 25.0443 131.571 25.165 131.39 25.4063ZM66.4524 31.8609L62.3505 16.9912H65.9397L67.3874 23.7172C67.7494 25.3761 68.0208 26.7937 68.2018 27.97H68.2923C68.4129 27.1255 68.6844 25.7381 69.1066 23.7474L70.6147 16.9912H74.204L70.0417 31.8609V38.979H66.4826V31.8609H66.4524ZM94.9551 22.933V39.0091H92.1199L91.8183 37.0486H91.7278C90.9738 38.5266 89.7975 39.2806 88.2592 39.2806C87.2036 39.2806 86.4194 38.9187 85.9066 38.2249C85.3939 37.5312 85.1526 36.4454 85.1526 34.9373V22.933H88.772V34.7262C88.772 35.4501 88.8625 35.9628 89.0133 36.2644C89.1641 36.5661 89.4355 36.7169 89.7975 36.7169C90.0991 36.7169 90.4007 36.6264 90.7023 36.4152C91.0039 36.2343 91.2151 35.993 91.3357 35.6914V22.933H94.9551ZM113.504 22.933V39.0091H110.669L110.368 37.0486H110.277C109.523 38.5266 108.347 39.2806 106.809 39.2806C105.753 39.2806 104.969 38.9187 104.456 38.2249C103.943 37.5312 103.702 36.4454 103.702 34.9373V22.933H107.321V34.7262C107.321 35.4501 107.412 35.9628 107.563 36.2644C107.713 36.5661 107.985 36.7169 108.347 36.7169C108.648 36.7169 108.95 36.6264 109.252 36.4152C109.553 36.2343 109.764 35.993 109.885 35.6914V22.933H113.504ZM101.199 19.9168H104.788V16.9911H94.0809V19.9168H97.6702V38.9789H101.199V19.9168ZM124.423 23.2949C124.906 23.7473 125.268 24.4712 125.479 25.4967C125.69 26.492 125.781 27.9096 125.811 29.7495V32.283C125.811 34.6658 125.509 36.4453 124.936 37.5613C124.363 38.6773 123.488 39.2503 122.252 39.2503C121.558 39.2503 120.955 39.0694 120.382 38.7678C119.809 38.436 119.386 38.0137 119.115 37.4708H119.025L118.663 38.9789H115.677V16.1768H119.175V24.6522H119.206C119.507 24.0489 119.96 23.5362 120.533 23.1742C121.106 22.7821 121.739 22.6012 122.403 22.6012C123.247 22.6012 123.941 22.8425 124.423 23.2949ZM122.011 34.7864C122.101 34.1229 122.161 33.218 122.161 32.0417H122.191V29.9304C122.191 28.6938 122.161 27.7286 122.071 27.0349C121.98 26.3714 121.86 25.8888 121.649 25.5872C121.468 25.3157 121.166 25.1649 120.804 25.1649C120.472 25.1649 120.141 25.3157 119.839 25.5872C119.537 25.8888 119.326 26.2507 119.206 26.673V35.7818C119.356 36.0532 119.567 36.2643 119.809 36.4152C120.05 36.566 120.321 36.6263 120.623 36.6263C120.985 36.6263 121.287 36.4755 121.528 36.204C121.739 35.9326 121.92 35.45 122.011 34.7864Z" fill="#1A1A1A"/>
</svg>
